<?xml version="1.0" standalone="no"?>
<!DOCTYPE svg PUBLIC "-//W3C//DTD SVG 1.1//EN" "http://www.w3.org/Graphics/SVG/1.1/DTD/svg11.dtd" >
<svg>
<metadata>
Created by FontForge 20120731 at Thu Jul  7 12:29:47 2016
 By Apache
Copyright 1985, 1987, 1991, 1993, 1997, 1998, 1999, 2002 Adobe Systems Incorporated. All rights reserved. Helvetica is a trademark of Linotype Corp. registered in the U.S. Patent and Trademark Office and may be registered in certain other jurisdictions in the name of Linotype Corp. or its licensee Linotype GmbH.
</metadata>
<defs>
<font id="HelveticaLTStd-CondObl" horiz-adv-x="500" >
  <font-face 
    font-family="Helvetica LT Std"
    font-weight="400"
    font-style="italic"
    font-stretch="condensed"
    units-per-em="1000"
    panose-1="2 11 5 6 2 2 2 3 2 4"
    ascent="718"
    descent="-282"
    x-height="556"
    cap-height="750"
    bbox="-174 -288 1118.39 990"
    underline-thickness="50"
    underline-position="-50"
    slope="-12"
    stemh="67"
    stemv="79"
    unicode-range="U+0020-FB02"
  />
<missing-glyph horiz-adv-x="648" 
d="M148 0v700h500v-700h-500zM398 395l170 255h-340zM428 350l170 -255v510zM228 50h340l-170 255zM198 605v-510l170 255z" />
    <glyph glyph-name=".notdef" horiz-adv-x="648" 
d="M148 0v700h500v-700h-500zM398 395l170 255h-340zM428 350l170 -255v510zM228 50h340l-170 255zM198 605v-510l170 255z" />
    <glyph glyph-name="space" unicode=" " horiz-adv-x="250" 
 />
    <glyph glyph-name="exclam" unicode="!" horiz-adv-x="333" 
d="M183 183l49 337l48 230h91l-48 -230l-95 -337h-45zM212 0h-91l21 100h91z" />
    <glyph glyph-name="quotedbl" unicode="&#x22;" horiz-adv-x="250" 
d="M153 513l48 226h52l-48 -226h-52zM264 513l48 226h52l-48 -226h-52z" />
    <glyph glyph-name="numbersign" unicode="#" 
d="M33 0l133 254h-107l30 59h108l64 124h-109l29 59h109l133 254h55l-132 -254h88l131 254h56l-132 -254h111l-29 -59h-112l-64 -124h112l-28 -59h-115l-132 -254h-55l132 254h-87l-134 -254h-55zM253 313h87l64 124h-88z" />
    <glyph glyph-name="dollar" unicode="$" 
d="M337 326l-56 -264c83 -4 121 46 137 122c18 86 -13 111 -81 142zM239 62l60 280c-85 43 -166 88 -140 207c24 114 112 197 226 201l14 65h44l-14 -65c121 -5 158 -81 132 -200h-81c8 42 18 95 -19 116c-15 6 -30 10 -48 9l-54 -255c118 -59 177 -86 149 -217
c-27 -130 -110 -216 -243 -218l-22 -101h-42l22 101c-153 6 -177 105 -138 247h80c-19 -86 -37 -170 74 -170zM319 436l50 239c-49 -3 -104 -29 -122 -114c-15 -71 21 -97 72 -125z" />
    <glyph glyph-name="percent" unicode="%" horiz-adv-x="833" 
d="M796 186c-30 -139 -98 -187 -184 -186c-64 1 -115 50 -86 189c20 93 69 173 176 173c103 0 112 -88 94 -176zM633 56c61 0 82 67 92 113c11 50 29 137 -40 137c-67 0 -85 -87 -96 -137c-10 -46 -17 -113 44 -113zM350 736c103 0 112 -91 93 -179
c-29 -139 -84 -191 -179 -183c-81 7 -120 47 -90 186c20 93 69 176 176 176zM281 430c61 0 83 67 92 113c11 50 30 137 -39 137c-67 0 -86 -87 -97 -137c-9 -46 -17 -113 44 -113zM754 750l-494 -765h-54l497 765h51z" />
    <glyph glyph-name="ampersand" unicode="&#x26;" horiz-adv-x="667" 
d="M455 127l-111 243c-73 -46 -123 -89 -141 -171c-18 -87 27 -142 113 -142c51 0 100 32 139 70zM392 469c52 34 98 71 111 132c9 43 -7 82 -54 82c-44 0 -78 -38 -87 -79c-10 -49 11 -96 30 -135zM416 414l99 -210c26 45 46 93 59 140h74c-20 -71 -48 -144 -98 -207
l70 -139h-101l-33 69c-58 -57 -122 -85 -195 -85c-135 0 -202 84 -173 218c24 114 100 170 202 227c-29 52 -50 100 -36 168c18 83 88 155 175 155c90 0 146 -56 126 -149c-17 -81 -97 -145 -169 -187z" />
    <glyph glyph-name="quoteright" unicode="&#x2019;" horiz-adv-x="222" 
d="M171 504l10 45c45 9 63 66 70 102h-49l21 99h94l-20 -98c-14 -65 -47 -126 -126 -148z" />
    <glyph glyph-name="parenleft" unicode="(" horiz-adv-x="333" 
d="M390 750h53c-64 -93 -171 -223 -225 -478c-39 -184 -35 -327 25 -487h-58c-58 147 -91 300 -54 475c42 197 122 324 259 490z" />
    <glyph glyph-name="parenright" unicode=")" horiz-adv-x="333" 
d="M56 -215h-53c65 93 172 223 226 478c39 184 34 327 -26 487h58c59 -147 92 -300 54 -475c-41 -197 -121 -324 -259 -490z" />
    <glyph glyph-name="asterisk" unicode="*" 
d="M255 669l104 -44l26 125h52l-26 -122l120 41l6 -48l-122 -38l56 -96l-48 -32l-57 99l-92 -94l-37 27l94 93l-102 45z" />
    <glyph glyph-name="plus" unicode="+" 
d="M276 289l46 216h70l-46 -216h172l-14 -70h-172l-47 -219h-70l47 219h-171l14 70h171z" />
    <glyph glyph-name="comma" unicode="," horiz-adv-x="250" 
d="M129 0h-49l21 100h91c-3 -16 -16 -80 -28 -118c-10 -41 -30 -83 -72 -108c-13 -9 -28 -15 -43 -20l10 45c7 1 18 6 25 13c27 24 38 57 45 88z" />
    <glyph glyph-name="hyphen" unicode="-" horiz-adv-x="333" 
d="M346 275h-243l18 83h243z" />
    <glyph glyph-name="period" unicode="." horiz-adv-x="250" 
d="M171 0h-91l21 100h91z" />
    <glyph glyph-name="slash" unicode="/" horiz-adv-x="278" 
d="M42 -27h-61l408 777h61z" />
    <glyph glyph-name="zero" unicode="0" 
d="M213 382c-30 -144 -88 -322 50 -322c124 0 157 178 187 322c23 106 72 284 -57 293c-130 8 -165 -224 -180 -293zM247 -15c-200 0 -151 251 -123 384c30 140 90 381 285 381c210 0 155 -238 124 -381c-36 -170 -90 -384 -286 -384z" />
    <glyph glyph-name="one" unicode="1" 
d="M234 0l116 546h-160l14 65c107 2 171 22 207 139h65l-159 -750h-83z" />
    <glyph glyph-name="two" unicode="2" 
d="M384 307l-161 -123c-43 -32 -65 -62 -77 -109h317l-16 -75h-403c12 54 31 109 64 162c17 26 49 54 75 75l173 138c70 56 96 86 113 168c17 76 2 132 -83 132c-103 0 -133 -101 -148 -180h-83l10 46c12 55 37 107 80 150c28 24 77 59 161 59c128 0 175 -85 149 -209
c-23 -110 -79 -164 -171 -234z" />
    <glyph glyph-name="three" unicode="3" 
d="M262 349l16 75c67 4 153 -10 182 128c16 73 4 123 -79 123c-94 0 -121 -70 -138 -147h-79c23 126 99 222 235 222c112 0 172 -73 148 -186c-17 -81 -55 -140 -141 -168v-2c83 -19 106 -88 88 -173c-30 -140 -112 -236 -261 -236c-150 0 -180 99 -148 235h82
c-24 -80 -18 -160 89 -160c82 0 133 57 149 134c28 131 -17 156 -143 155z" />
    <glyph glyph-name="four" unicode="4" 
d="M431 620l-281 -358h207l76 358h-2zM84 264l383 486h76l-103 -488h67l-16 -75h-67l-40 -187h-83l40 187h-273z" />
    <glyph glyph-name="five" unicode="5" 
d="M85 196h86c-21 -80 -3 -136 82 -136c88 0 138 88 158 181c19 86 19 176 -87 176c-50 0 -90 -22 -120 -68h-74l126 386h319l-16 -75h-252l-79 -220l1 -2c41 36 79 54 131 54c137 -1 166 -116 140 -238c-28 -133 -106 -269 -261 -269c-133 0 -188 79 -154 211z" />
    <glyph glyph-name="six" unicode="6" 
d="M423 242c18 82 9 159 -87 159c-98 0 -133 -82 -148 -151c-35 -142 7 -190 82 -190c98 0 137 106 153 182zM256 -15c-201 0 -175 194 -142 348c33 156 94 417 310 417c111 0 157 -71 137 -179h-85c15 68 -7 104 -78 104c-127 0 -170 -211 -191 -291h2c42 64 103 92 157 92
c134 0 170 -108 145 -229c-35 -160 -141 -262 -255 -262z" />
    <glyph glyph-name="seven" unicode="7" 
d="M184 660l16 75h412l-14 -69c-185 -194 -318 -427 -389 -666h-93c80 239 223 467 411 660h-343z" />
    <glyph glyph-name="eight" unicode="8" 
d="M178 218c-17 -83 -7 -158 91 -158c69 0 124 57 146 159c16 77 -1 145 -88 145s-133 -70 -149 -146zM274 562c-16 -74 3 -123 73 -123c73 0 105 55 119 120c13 64 4 116 -70 116s-107 -46 -122 -113zM274 404v2c-86 15 -102 80 -84 165s87 179 228 179
c105 0 161 -62 135 -184c-16 -76 -63 -145 -147 -160v-2c90 -16 113 -96 96 -178c-27 -129 -106 -241 -251 -241c-137 0 -190 85 -159 230c25 121 118 178 182 189z" />
    <glyph glyph-name="nine" unicode="9" 
d="M472 490c17 80 16 185 -84 185c-94 0 -136 -96 -152 -172c-17 -78 -16 -169 81 -169c94 0 139 78 155 156zM401 750c201 0 175 -194 142 -348c-33 -156 -94 -417 -310 -417c-111 0 -157 71 -137 179h85c-15 -68 7 -104 78 -104c127 0 171 211 192 291h-2
c-43 -64 -104 -92 -158 -92c-134 0 -170 108 -144 229c34 160 140 262 254 262z" />
    <glyph glyph-name="colon" unicode=":" horiz-adv-x="250" 
d="M171 0h-91l21 100h91zM266 447h-91l21 100h91z" />
    <glyph glyph-name="semicolon" unicode=";" horiz-adv-x="250" 
d="M80 0l21 100h91c-3 -16 -16 -80 -28 -118c-10 -41 -30 -83 -72 -108c-13 -9 -28 -15 -43 -20l10 45c7 1 18 6 25 13c27 24 38 57 45 88h-49zM266 447h-91l21 100h91z" />
    <glyph glyph-name="less" unicode="&#x3c;" 
d="M174 254l298 -191l-15 -73l-368 232l14 64l466 232l-15 -73z" />
    <glyph glyph-name="equal" unicode="=" 
d="M539 384l-15 -70h-413l15 70h413zM498 194l-15 -70h-413l15 70h413z" />
    <glyph glyph-name="greater" unicode="&#x3e;" 
d="M55 63l380 191l-298 191l15 73l368 -232l-14 -64l-466 -232z" />
    <glyph glyph-name="question" unicode="?" 
d="M324 172h-89c22 104 36 128 122 206c18 15 33 30 49 45c44 44 71 76 83 133c13 59 0 124 -74 124c-105 0 -143 -85 -159 -166h-87c21 121 101 236 248 236c122 0 189 -72 164 -188c-28 -133 -115 -171 -211 -271c-8 -11 -18 -22 -23 -34c-13 -27 -17 -56 -23 -85zM289 0
h-91l21 100h91z" />
    <glyph glyph-name="at" unicode="@" horiz-adv-x="800" 
d="M545 536c-106 0 -206 -149 -225 -241c-10 -48 6 -96 57 -96c53 0 105 52 135 93c34 47 77 118 88 171c9 39 -13 73 -55 73zM656 529l24 47h69l-167 -305c-8 -14 -21 -38 -24 -52c-4 -17 6 -29 23 -29c45 0 107 46 139 81c43 47 73 107 85 164c35 164 -88 266 -240 266
c-186 0 -362 -155 -401 -337c-38 -182 81 -330 261 -330c104 0 218 53 297 140h60c-89 -117 -235 -189 -367 -189c-216 0 -345 173 -300 386c44 210 253 379 463 379c86 0 165 -30 219 -87c58 -61 79 -138 59 -232c-15 -67 -50 -129 -100 -184c-54 -58 -125 -110 -200 -110
c-35 0 -71 16 -76 53c-37 -32 -87 -51 -130 -51c-86 0 -126 69 -108 151c28 135 166 306 315 306c47 0 88 -23 99 -67z" />
    <glyph glyph-name="A" unicode="A" horiz-adv-x="556" 
d="M11 0l373 750h110l52 -750h-92l-13 216h-237l-101 -216h-92zM438 291l-12 399h-2l-184 -399h198z" />
    <glyph glyph-name="B" unicode="B" horiz-adv-x="556" 
d="M179 75h131c90 -1 132 43 153 141c32 148 -66 138 -151 138h-74zM306 675l-52 -246h74c100 -5 163 13 186 128c20 93 -8 120 -135 118h-73zM278 0h-198l159 750h214c137 4 172 -74 152 -186c-15 -83 -53 -135 -147 -165l-1 -2c97 -12 112 -84 93 -176
c-31 -149 -129 -227 -272 -221z" />
    <glyph glyph-name="C" unicode="C" horiz-adv-x="556" 
d="M615 525h-83c17 89 4 165 -100 165c-144 0 -190 -205 -211 -304c-26 -102 -76 -329 76 -329c99 0 137 81 165 163c5 17 10 34 16 51h83c-6 -15 -9 -31 -14 -46c-18 -61 -31 -107 -78 -159c-50 -54 -109 -84 -181 -84c-231 0 -191 223 -153 402c36 169 106 381 319 381
c142 0 193 -106 161 -240z" />
    <glyph glyph-name="D" unicode="D" horiz-adv-x="611" 
d="M303 0h-221l159 750h206c234 0 226 -190 181 -375c-45 -183 -122 -375 -325 -375zM308 675l-127 -600h133c122 0 191 91 231 315c30 171 30 285 -104 285h-133z" />
    <glyph glyph-name="E" unicode="E" 
d="M451 0h-377l159 750h375l-16 -75h-292l-52 -248h274l-16 -75h-274l-59 -277h294z" />
    <glyph glyph-name="F" unicode="F" horiz-adv-x="444" 
d="M157 0h-83l159 750h352l-16 -75h-269l-52 -246h250l-16 -75h-250z" />
    <glyph glyph-name="G" unicode="G" horiz-adv-x="611" 
d="M614 385l-83 -391h-64l25 117h-2c-40 -85 -117 -129 -200 -129c-223 0 -193 222 -155 398c37 175 113 385 330 385c143 0 205 -93 173 -233h-84c19 92 -7 156 -101 158c-164 3 -206 -185 -233 -313c-24 -114 -72 -313 74 -320c153 -7 197 134 221 253h-167l16 75h250z
" />
    <glyph glyph-name="H" unicode="H" horiz-adv-x="611" 
d="M162 0h-83l159 750h83l-66 -313h287l66 313h83l-159 -750h-83l77 362h-287z" />
    <glyph glyph-name="I" unicode="I" horiz-adv-x="278" 
d="M181 0h-83l159 750h83z" />
    <glyph glyph-name="J" unicode="J" horiz-adv-x="444" 
d="M72 235h83l-9 -44c-15 -67 -25 -131 59 -131s106 64 121 131l118 559h83l-120 -565c-33 -158 -114 -200 -219 -200c-58 0 -111 17 -128 71c-19 60 3 143 12 179z" />
    <glyph glyph-name="K" unicode="K" horiz-adv-x="556" 
d="M163 0h-84l159 750h83l-81 -385h2l352 385h104l-305 -314l153 -436h-102l-126 362l-100 -102z" />
    <glyph glyph-name="L" unicode="L" 
d="M472 0h-389l159 750h83l-143 -675h306z" />
    <glyph glyph-name="M" unicode="M" horiz-adv-x="778" 
d="M442 166l273 584h146l-159 -750h-83l131 618c7 32 16 63 21 95h-2c-19 -44 -32 -72 -45 -101l-287 -612h-99l-25 621c-1 26 -2 51 -2 92h-2c-7 -32 -12 -65 -19 -97l-131 -616h-83l159 750h147l23 -585c1 -32 -1 -63 -8 -111h2c14 38 26 75 43 112z" />
    <glyph glyph-name="N" unicode="N" horiz-adv-x="611" 
d="M480 138l130 612h83l-159 -750h-136l-82 600c-5 34 -7 68 -4 113h-2c-8 -38 -15 -77 -23 -115l-127 -598h-83l159 750h135l83 -614c4 -23 6 -47 8 -82h2c5 27 10 56 16 84z" />
    <glyph glyph-name="O" unicode="O" horiz-adv-x="611" 
d="M142 391c37 172 106 374 329 374c219 0 203 -202 165 -374c-45 -208 -115 -409 -334 -409s-202 201 -160 409zM550 389c36 167 33 301 -99 301c-128 0 -189 -134 -223 -301c-45 -217 -48 -332 90 -332s185 115 232 332z" />
    <glyph glyph-name="P" unicode="P" horiz-adv-x="556" 
d="M312 675l-59 -282h81c114 1 187 17 214 146c25 121 -48 138 -150 136h-86zM169 0h-83l159 750h197c58 0 130 -7 165 -49c36 -42 40 -100 27 -160c-18 -83 -60 -164 -149 -201c-56 -22 -141 -22 -198 -22h-50z" />
    <glyph glyph-name="Q" unicode="Q" horiz-adv-x="611" 
d="M515 90l71 -72l-53 -52l-69 70c-39 -32 -107 -54 -162 -54c-219 0 -202 201 -160 409c37 172 106 374 325 374c223 0 207 -202 170 -374c-11 -52 -57 -235 -122 -301zM412 85l-61 59l55 55l58 -56c24 29 64 135 80 215c44 217 47 332 -91 332s-185 -115 -232 -332
c-36 -167 -34 -305 95 -301c33 1 61 6 96 28z" />
    <glyph glyph-name="R" unicode="R" horiz-adv-x="611" 
d="M312 675l-57 -270h131c39 1 149 7 174 138c26 129 -75 132 -131 132h-117zM239 330l-70 -330h-83l159 750h193c157 0 249 -41 207 -214c-22 -88 -89 -151 -179 -163v-2c95 -9 112 -40 103 -140c-9 -56 -15 -111 -19 -167c0 -14 -1 -47 19 -47l-4 -17h-97
c-8 48 4 141 15 191c16 75 -1 139 -99 139h-145z" />
    <glyph glyph-name="S" unicode="S" horiz-adv-x="556" 
d="M601 553h-83c22 78 -7 137 -90 137c-121 0 -150 -76 -163 -134c-11 -52 5 -84 49 -102c37 -15 73 -30 110 -45c131 -53 146 -103 125 -202c-30 -142 -137 -225 -281 -225c-74 0 -157 21 -180 119c-8 37 6 97 14 137h83c-28 -111 -22 -181 103 -181c84 0 152 43 171 131
c24 114 -22 115 -91 144c-38 16 -100 37 -135 58c-63 36 -69 96 -53 170c26 124 131 205 253 205c137 0 206 -71 168 -212z" />
    <glyph glyph-name="T" unicode="T" 
d="M158 675l16 75h471l-16 -75h-194l-143 -675h-83l143 675h-194z" />
    <glyph glyph-name="U" unicode="U" horiz-adv-x="611" 
d="M119 181l121 569h83l-114 -539c-14 -59 -24 -154 109 -154s163 95 175 154l114 539h83l-121 -569c-28 -134 -131 -199 -267 -199s-211 65 -183 199z" />
    <glyph glyph-name="V" unicode="V" horiz-adv-x="556" 
d="M291 60l321 690h92l-375 -750h-103l-56 750h92l27 -690h2z" />
    <glyph glyph-name="W" unicode="W" horiz-adv-x="833" 
d="M497 509l-217 -509h-103l-1 750h92l-11 -517c-2 -51 -6 -103 -15 -173h2c19 58 37 113 59 167l221 523h103l-10 -517c-2 -50 -7 -100 -15 -173h2c19 58 37 113 59 167l220 523h92l-335 -750h-103l8 509c1 49 5 99 17 181h-2c-23 -72 -40 -127 -63 -181z" />
    <glyph glyph-name="X" unicode="X" horiz-adv-x="556" 
d="M17 0l295 385l-130 365h98l95 -293l219 293h98l-283 -365l130 -385h-102l-92 314l-229 -314h-99z" />
    <glyph glyph-name="Y" unicode="Y" horiz-adv-x="556" 
d="M262 750l95 -376l256 376h92l-324 -459l-62 -291h-83l62 291l-128 459h92z" />
    <glyph glyph-name="Z" unicode="Z" 
d="M473 0h-445l15 72l482 603h-345l16 75h431l-15 -72l-482 -603h359z" />
    <glyph glyph-name="bracketleft" unicode="[" horiz-adv-x="333" 
d="M231 -209h-175l203 959h175l-12 -60h-97l-178 -837h97z" />
    <glyph glyph-name="backslash" unicode="\" horiz-adv-x="250" 
d="M271 -27h-61l-78 777h61z" />
    <glyph glyph-name="bracketright" unicode="]" horiz-adv-x="333" 
d="M189 -209h-175l13 62h97l178 837h-97l12 60h175z" />
    <glyph glyph-name="asciicircum" unicode="^" 
d="M384 750h49l69 -417h-54l-56 338l-198 -338h-53z" />
    <glyph glyph-name="underscore" unicode="_" 
d="M473 -125h-500l11 50h500z" />
    <glyph glyph-name="quoteleft" unicode="&#x2018;" horiz-adv-x="222" 
d="M321 767l-10 -45c-44 -9 -63 -66 -70 -102h49l-21 -99h-94l22 99c14 63 44 125 124 147z" />
    <glyph glyph-name="a" unicode="a" horiz-adv-x="444" 
d="M322 165l29 135c-44 -23 -92 -40 -138 -60c-41 -17 -61 -58 -69 -96c-12 -56 -6 -92 58 -92c30 0 101 23 120 113zM429 58l-12 -58c-6 -1 -12 -2 -19 -4c-67 -3 -91 3 -83 79h-2c-29 -49 -89 -90 -142 -90c-111 0 -130 62 -109 163c5 21 25 101 109 135
c49 20 170 62 182 70c20 13 22 35 29 64c13 63 -6 87 -70 87c-72 0 -89 -33 -102 -98h-71c21 115 88 165 200 165c165 0 122 -138 119 -151l-68 -319c-3 -14 -9 -34 6 -42c10 -3 22 -2 33 -1z" />
    <glyph glyph-name="b" unicode="b" 
d="M205 264c-17 -81 -46 -212 66 -212c82 0 123 86 155 236c16 73 41 216 -60 216c-117 0 -144 -159 -161 -240zM161 66l-14 -66h-72l159 750h79l-53 -251h2c42 50 82 72 131 72c141 0 145 -143 121 -257c-34 -158 -91 -329 -241 -329c-48 0 -91 16 -110 81h-2z" />
    <glyph glyph-name="c" unicode="c" horiz-adv-x="444" 
d="M342 504c-115 0 -145 -171 -162 -250c-16 -73 -38 -202 63 -202c86 0 110 74 128 142h75c-26 -107 -87 -209 -211 -209c-170 0 -164 142 -133 286c29 136 85 300 255 300c112 0 148 -87 125 -190h-74c12 61 9 123 -66 123z" />
    <glyph glyph-name="d" unicode="d" 
d="M391 218l15 69c16 76 44 217 -62 217c-66 0 -120 -52 -156 -223c-26 -120 -45 -229 63 -229c82 0 127 103 140 166zM451 499l53 251h79l-159 -750h-76l16 73h-2c-49 -66 -87 -88 -154 -88c-175 0 -109 245 -101 294c29 163 110 292 229 292c57 0 86 -24 113 -72h2z" />
    <glyph glyph-name="e" unicode="e" horiz-adv-x="444" 
d="M196 336h188c11 65 37 168 -55 168s-116 -102 -133 -168zM356 185h74c-18 -109 -93 -200 -210 -200c-105 0 -165 70 -118 294c25 117 93 292 240 292c180 0 134 -170 111 -300h-270c-14 -75 -58 -219 53 -219c76 0 112 70 120 133z" />
    <glyph glyph-name="f" unicode="f" horiz-adv-x="278" 
d="M93 0l104 489h-81l14 67h80l10 47c7 33 17 79 43 107c34 37 83 47 155 40l-14 -67c-63 6 -87 0 -101 -68l-13 -59h87l-14 -67h-87l-104 -489h-79z" />
    <glyph glyph-name="g" unicode="g" 
d="M343 504c-105 0 -141 -151 -157 -226c-29 -136 -25 -226 53 -226c120 0 151 149 170 238c23 110 22 214 -66 214zM452 493l13 63h79l-104 -489c-14 -68 -30 -120 -80 -179c-46 -55 -108 -77 -169 -77c-89 0 -146 41 -137 136h77c-4 -50 24 -69 72 -69
c128 0 142 126 156 187h-2c-45 -57 -86 -80 -137 -80c-105 0 -163 73 -115 297c25 117 90 289 237 289c51 0 92 -25 108 -78h2z" />
    <glyph glyph-name="h" unicode="h" 
d="M231 372l-79 -372h-79l159 750h79l-54 -255h2c46 48 93 76 153 76c83 0 128 -44 107 -142l-91 -429h-79l87 407c12 58 1 97 -63 97c-29 0 -59 -11 -84 -31c-39 -29 -49 -61 -58 -101z" />
    <glyph glyph-name="i" unicode="i" horiz-adv-x="222" 
d="M151 0h-79l118 556h79zM289 650h-79l21 100h79z" />
    <glyph glyph-name="j" unicode="j" horiz-adv-x="222" 
d="M-27 -190l15 73c12 -1 45 -1 56 15c17 22 20 49 25 73l124 585h79l-123 -578c-27 -130 -67 -168 -176 -168zM292 650h-79l21 100h79z" />
    <glyph glyph-name="k" unicode="k" horiz-adv-x="444" 
d="M148 0h-79l159 750h79l-96 -453h2l245 259h94l-218 -216l105 -340h-92l-80 277l-77 -79z" />
    <glyph glyph-name="l" unicode="l" horiz-adv-x="222" 
d="M151 0h-79l159 750h79z" />
    <glyph glyph-name="m" unicode="m" horiz-adv-x="778" 
d="M234 372l-79 -372h-79l118 556h76l-15 -71h2c36 47 92 86 150 86c59 0 100 -35 114 -88c51 57 97 88 167 88c38 0 71 -13 94 -39c29 -33 14 -95 6 -130l-85 -402h-79l87 407c13 62 3 97 -65 97c-27 -1 -56 -12 -80 -31c-39 -29 -49 -61 -58 -101l-79 -372h-79l87 407
c12 58 1 97 -63 97c-29 0 -59 -11 -84 -31c-39 -29 -47 -61 -56 -101z" />
    <glyph glyph-name="n" unicode="n" 
d="M268 556l-13 -61h2c48 48 95 76 155 76c83 0 128 -44 107 -142l-91 -429h-79l87 407c12 58 1 97 -63 97c-29 0 -59 -11 -84 -31c-39 -29 -49 -61 -58 -101l-79 -372h-79l118 556h77z" />
    <glyph glyph-name="o" unicode="o" 
d="M512 297c-51 -241 -143 -312 -265 -312c-120 0 -184 72 -133 312c36 168 120 274 257 274s177 -106 141 -274zM425 272c36 168 15 232 -68 232c-81 0 -130 -64 -166 -232c-28 -131 -22 -220 70 -220c94 0 136 89 164 220z" />
    <glyph glyph-name="p" unicode="p" 
d="M426 288c16 73 38 216 -63 216c-103 0 -136 -146 -153 -225c-16 -77 -51 -227 58 -227c82 0 126 86 158 236zM163 58l-52 -246h-79l158 744h76l-13 -62h2c36 52 86 74 131 77c141 0 152 -142 128 -256c-34 -158 -98 -330 -248 -330c-56 0 -82 28 -101 73h-2z" />
    <glyph glyph-name="q" unicode="q" 
d="M191 254c-20 -108 -23 -202 61 -202c108 0 138 151 155 228c15 75 50 223 -56 224c-104 0 -140 -142 -160 -250zM456 499l12 57h76l-157 -740h-79l52 245h-2c-46 -51 -84 -76 -134 -76c-117 0 -142 88 -112 285c20 126 95 301 229 301c50 0 92 -20 113 -72h2z" />
    <glyph glyph-name="r" unicode="r" horiz-adv-x="333" 
d="M275 556l-19 -91h2c48 73 102 104 183 97l-16 -78c-98 18 -172 -46 -193 -147l-72 -337h-79l118 556h76z" />
    <glyph glyph-name="s" unicode="s" horiz-adv-x="444" 
d="M467 407h-77c17 66 -1 97 -68 97c-56 0 -93 -26 -106 -84c-15 -72 42 -81 91 -104c73 -36 148 -56 126 -160c-22 -106 -110 -172 -224 -171c-49 -1 -106 16 -126 58c-24 44 -14 81 -6 119h75c-17 -68 -3 -110 71 -110c64 0 112 26 126 94c17 79 -62 86 -114 110
c-79 32 -123 61 -102 158c20 96 100 157 196 157c110 0 164 -50 138 -164z" />
    <glyph glyph-name="t" unicode="t" horiz-adv-x="278" 
d="M314 707l-32 -151h93l-14 -67h-92l-81 -379c-4 -19 -16 -43 28 -43h53l-14 -67h-87c-47 -1 -81 7 -63 91l85 398h-77l14 67h77l32 151h78z" />
    <glyph glyph-name="u" unicode="u" 
d="M345 0l16 73h-2c-40 -57 -97 -88 -151 -88c-83 0 -125 44 -104 142l91 429h79l-92 -432c-10 -47 0 -72 56 -72c38 0 77 17 105 49c24 28 37 66 44 98l76 357h79l-118 -556h-79z" />
    <glyph glyph-name="v" unicode="v" horiz-adv-x="444" 
d="M178 0l-47 556h82l22 -489h2l230 489h82l-285 -556h-86z" />
    <glyph glyph-name="w" unicode="w" horiz-adv-x="667" 
d="M492 556l-10 -489h2l201 489h82l-257 -556h-82l10 489h-2l-192 -489h-82l-25 556h82l-3 -489h2l192 489h82z" />
    <glyph glyph-name="x" unicode="x" horiz-adv-x="444" 
d="M240 286l-103 270h82l82 -200l165 200h82l-217 -270l105 -286h-82l-83 222l-180 -222h-82z" />
    <glyph glyph-name="y" unicode="y" horiz-adv-x="444" 
d="M179 -13l-56 569h82l23 -482h2l231 482h82l-278 -531c-17 -33 -59 -114 -81 -142c-40 -52 -84 -73 -142 -73c-19 0 -38 3 -55 9l14 70c17 -8 38 -12 57 -12c74 0 88 55 121 110z" />
    <glyph glyph-name="z" unicode="z" horiz-adv-x="389" 
d="M366 0h-342l13 62l349 429h-247l14 65h329l-14 -65l-348 -426h260z" />
    <glyph glyph-name="braceleft" unicode="{" horiz-adv-x="274" 
d="M217 190l-36 -173c-12 -55 0 -89 65 -110v-2c-135 -4 -161 38 -138 147l35 165c7 34 15 62 -14 86c-13 12 -32 20 -52 25v2c33 3 54 14 73 29c30 25 33 45 39 75l40 186c8 38 21 79 64 104c44 26 83 26 132 26v-2c-76 -20 -100 -53 -112 -110l-40 -187
c-14 -64 -38 -105 -126 -121v-2c83 -19 85 -67 70 -138z" />
    <glyph glyph-name="bar" unicode="|" horiz-adv-x="410" 
d="M252 866h66v-1154h-66v1154z" />
    <glyph glyph-name="braceright" unicode="}" horiz-adv-x="274" 
d="M196 465l37 173c11 55 0 89 -66 110v2c135 4 161 -38 138 -147l-35 -165c-7 -34 -15 -62 14 -86c13 -12 33 -20 53 -25l-1 -2c-33 -3 -54 -14 -73 -29c-29 -25 -33 -45 -39 -75l-40 -186c-8 -38 -20 -79 -64 -104c-44 -26 -83 -26 -132 -26v2c76 20 100 53 113 110
l39 187c14 64 39 105 126 121l1 2c-83 19 -86 67 -71 138z" />
    <glyph glyph-name="asciitilde" unicode="~" 
d="M232 332c29 0 60 -17 88 -35c30 -17 57 -35 78 -35c37 0 75 47 98 83l24 -47c-35 -54 -84 -111 -139 -111c-30 0 -77 30 -102 44c-19 11 -40 25 -64 25c-43 0 -75 -50 -102 -90l-24 48c37 56 85 118 143 118z" />
    <glyph glyph-name="exclamdown" unicode="&#xa1;" horiz-adv-x="333" 
d="M226 388h45l-48 -337l-49 -230h-91l49 230zM242 571h91l-21 -100h-91z" />
    <glyph glyph-name="cent" unicode="&#xa2;" 
d="M198 -9l-56 -128h-48l62 143c-17 10 -30 23 -40 41c-26 65 -17 144 -2 218c21 97 68 252 189 283c23 6 43 8 65 8c9 0 18 -1 27 -3l50 114h50l-56 -127c38 -19 61 -55 60 -105c1 -22 0 -42 -4 -63h-78c7 41 9 77 -9 97l-181 -413c8 -4 19 -4 31 -4c85 0 108 73 126 138
h74c-2 -17 -10 -33 -15 -49c-16 -44 -35 -82 -75 -115c-31 -25 -83 -41 -119 -41c-18 0 -36 2 -51 6zM191 87l176 402c-6 2 -13 2 -20 2c-61 0 -90 -47 -110 -97c-22 -51 -35 -103 -46 -155c-10 -47 -20 -112 0 -152z" />
    <glyph glyph-name="sterling" unicode="&#xa3;" 
d="M197 338h-95l9 44h75c-18 55 -30 105 -17 168c9 41 29 85 60 119c53 57 115 81 196 81c114 0 177 -65 162 -179c-2 -16 -4 -33 -9 -49h-83c1 6 9 36 10 55c3 66 -36 98 -102 98c-84 0 -134 -57 -150 -135c-12 -55 2 -111 18 -158h164l-9 -44h-145c1 -6 4 -11 3 -17
c4 -16 3 -39 -1 -57c-17 -82 -86 -152 -156 -200l1 -2c25 14 51 23 77 27s53 4 77 -1c23 -8 49 -13 72 -20c43 -11 82 3 124 29l13 -67c-53 -34 -77 -40 -133 -40c-29 0 -79 22 -111 30c-18 4 -36 6 -55 6c-47 0 -81 -17 -124 -41l-28 61c77 54 140 110 159 200
c7 32 5 63 -2 92z" />
    <glyph glyph-name="fraction" unicode="&#x2044;" horiz-adv-x="167" 
d="M-174 0l611 750h63l-611 -750h-63z" />
    <glyph glyph-name="yen" unicode="&#xa5;" 
d="M261 262l6 29l-125 459h100l87 -376l254 376h94l-328 -459l-6 -29h138l-10 -44h-138l-16 -76h138l-9 -44h-138l-21 -98h-82l21 98h-138l9 44h138l16 76h-138l10 44h138z" />
    <glyph glyph-name="florin" unicode="&#x192;" 
d="M-28 -179l24 68c14 -14 64 -15 97 2c28 15 60 95 83 154l137 363h-110l14 67h122c40 104 96 275 238 275c24 0 48 -3 68 -11l-33 -77c-11 15 -29 21 -49 21c-63 0 -88 -71 -109 -119c-14 -31 -25 -61 -36 -89h121l-14 -67h-130l-122 -329c-31 -85 -90 -217 -148 -247
c-46 -24 -106 -33 -153 -11z" />
    <glyph glyph-name="section" unicode="&#xa7;" 
d="M59 -21h81c-15 -71 5 -120 81 -120c56 0 106 29 119 89c12 55 -12 81 -139 176c-95 70 -116 110 -102 178c16 76 75 125 146 156c-38 29 -53 77 -42 130c21 101 110 162 211 162c109 0 156 -69 132 -176h-82c14 65 -5 107 -74 107c-50 0 -95 -33 -106 -84
c-9 -43 -16 -48 101 -140c75 -59 157 -99 135 -201c-16 -77 -74 -124 -142 -166c38 -34 57 -71 45 -129c-24 -110 -109 -169 -228 -169c-112 0 -164 77 -136 187zM234 215l-2 -1c22 -15 95 -74 107 -85c46 30 87 59 98 113c8 36 -3 60 -78 123c-27 21 -51 41 -74 58
c-43 -26 -92 -54 -102 -105c-7 -33 -12 -48 51 -103z" />
    <glyph glyph-name="currency" unicode="&#xa4;" 
d="M51 110l48 42c-19 47 -23 91 -11 148c12 59 34 103 75 151l-30 43l58 53l30 -43c48 34 99 49 150 49c49 0 87 -18 120 -49l49 43l36 -53l-47 -43c18 -49 22 -95 9 -156c-12 -56 -36 -97 -73 -143l29 -42l-58 -53l-31 43c-47 -33 -98 -50 -149 -50c-50 0 -87 19 -121 50
l-48 -43zM355 481c-93 2 -173 -77 -195 -181c-21 -97 27 -178 113 -178c90 0 173 79 194 181c21 95 -24 180 -112 178z" />
    <glyph glyph-name="quotesingle" unicode="'" horiz-adv-x="250" 
d="M208 513l48 226h52l-48 -226h-52z" />
    <glyph glyph-name="quotedblleft" unicode="&#x201c;" horiz-adv-x="389" 
d="M319 767l-10 -45c-44 -9 -63 -66 -70 -102h49l-21 -99h-94l22 99c14 60 43 125 124 147zM490 767l-10 -45c-44 -9 -63 -66 -70 -102h49l-21 -99h-94l21 99c13 62 45 125 125 147z" />
    <glyph glyph-name="guillemotleft" unicode="&#xab;" 
d="M158 342l183 153l-17 -83l-122 -102l78 -102l-17 -83l-118 156zM337 342l183 153l-17 -83l-122 -102l78 -102l-17 -83l-118 156z" />
    <glyph glyph-name="guilsinglleft" unicode="&#x2039;" horiz-adv-x="278" 
d="M137 342l183 153l-17 -83l-122 -102l78 -102l-17 -83l-118 156z" />
    <glyph glyph-name="guilsinglright" unicode="&#x203a;" horiz-adv-x="278" 
d="M273 278l-183 -153l17 83l122 102l-78 102l17 83l118 -156z" />
    <glyph glyph-name="fi" unicode="&#xfb01;" 
d="M93 0l104 489h-81l14 67h80l10 47c7 33 17 79 43 107c34 37 83 47 155 40l-14 -67c-63 6 -87 0 -101 -68l-13 -59h87l-14 -67h-87l-104 -489h-79zM584 750l-21 -100h-79l21 100h79zM545 556l-118 -556h-79l118 556h79z" />
    <glyph glyph-name="fl" unicode="&#xfb02;" 
d="M93 0l104 489h-81l14 67h80l10 47c7 33 17 79 43 107c34 37 83 47 155 40l-14 -67c-63 6 -87 0 -101 -68l-13 -59h87l-14 -67h-87l-104 -489h-79zM425 0h-79l159 750h79z" />
    <glyph glyph-name="endash" unicode="&#x2013;" 
d="M58 275l15 70h500l-15 -70h-500z" />
    <glyph glyph-name="dagger" unicode="&#x2020;" 
d="M173 -176l134 633h-170l15 70h170l47 223h80l-47 -223h171l-15 -70h-171l-134 -633h-80z" />
    <glyph glyph-name="daggerdbl" unicode="&#x2021;" 
d="M222 51h-172l15 70h171l69 328h-169l15 70h170l49 231h80l-49 -231h171l-15 -70h-171l-69 -328h171l-15 -70h-171l-48 -227h-80z" />
    <glyph glyph-name="periodcentered" unicode="&#xb7;" horiz-adv-x="250" 
d="M214 204h-91l22 100h91z" />
    <glyph glyph-name="paragraph" unicode="&#xb6;" horiz-adv-x="440" 
d="M132 -116l103 482c-83 -1 -139 87 -117 190c12 55 43 110 83 146c50 44 90 47 141 48h208l-184 -866h-79l170 799h-76l-170 -799h-79z" />
    <glyph glyph-name="bullet" unicode="&#x2022;" horiz-adv-x="333" 
d="M398 375c-18 -83 -101 -153 -185 -153c-83 0 -136 70 -118 153c18 84 100 154 183 154c84 0 138 -70 120 -154z" />
    <glyph glyph-name="quotesinglbase" unicode="&#x201a;" horiz-adv-x="222" 
d="M33 -146l10 45c44 9 63 66 70 102h-49l21 99h94l-21 -100c-13 -61 -45 -124 -125 -146z" />
    <glyph glyph-name="quotedblbase" unicode="&#x201e;" horiz-adv-x="389" 
d="M202 -146l10 45c44 9 63 66 70 101h-49l21 100h94l-22 -100c-13 -57 -41 -123 -124 -146zM31 -146l10 45c44 9 63 66 70 101h-49l21 100h94l-21 -100c-12 -55 -41 -123 -125 -146z" />
    <glyph glyph-name="quotedblright" unicode="&#x201d;" horiz-adv-x="389" 
d="M169 504l10 45c45 9 63 66 70 102h-49l21 99h94l-21 -99c-13 -62 -45 -125 -125 -147zM340 504l10 45c45 9 63 66 70 102h-49l21 99h94l-22 -99c-14 -62 -44 -125 -124 -147z" />
    <glyph glyph-name="guillemotright" unicode="&#xbb;" 
d="M474 278l-183 -153l17 83l122 102l-78 102l17 83l118 -156zM295 278l-183 -153l17 83l122 102l-78 102l17 83l118 -156z" />
    <glyph glyph-name="ellipsis" unicode="&#x2026;" horiz-adv-x="1000" 
d="M212 0h-91l21 100h91zM545 0h-91l21 100h91zM899 100l-21 -100h-91l21 100h91z" />
    <glyph glyph-name="perthousand" unicode="&#x2030;" horiz-adv-x="1111" 
d="M758 186c-30 -139 -79 -187 -176 -186c-83 1 -123 50 -94 189c20 93 69 173 176 173c103 0 112 -88 94 -176zM647 306c-67 0 -85 -87 -96 -137c-10 -46 -17 -113 44 -113s82 67 92 113c11 50 29 137 -40 137zM436 560c-30 -139 -81 -184 -178 -182c-82 1 -121 46 -91 185
c19 93 68 173 175 173c103 0 113 -88 94 -176zM326 680c-67 0 -86 -89 -97 -139c-10 -46 -16 -107 45 -107s81 61 91 107c11 50 30 139 -39 139zM1111 186c-30 -139 -78 -188 -175 -186c-83 2 -124 50 -95 189c20 93 69 173 176 173c103 0 112 -88 94 -176zM1000 306
c-67 0 -85 -87 -96 -137c-10 -46 -17 -113 44 -113s82 67 92 113c11 50 29 137 -40 137zM738 750l-503 -766h-53l501 766h55z" />
    <glyph glyph-name="questiondown" unicode="&#xbf;" 
d="M363 46h87c-21 -121 -101 -236 -248 -236c-122 0 -189 72 -164 188c28 133 114 169 206 272c41 45 39 61 51 117h89c-22 -103 -36 -127 -122 -205c-60 -52 -116 -103 -132 -178c-13 -59 0 -124 74 -124c105 0 143 85 159 166zM330 559h91l-21 -100h-91z" />
    <glyph glyph-name="grave" unicode="`" horiz-adv-x="333" 
d="M198 765h109l59 -141h-67z" />
    <glyph glyph-name="acute" unicode="&#xb4;" horiz-adv-x="333" 
d="M233 624l119 141h109l-161 -141h-67z" />
    <glyph glyph-name="circumflex" unicode="&#x2c6;" horiz-adv-x="333" 
d="M366 624l-46 94l-86 -94h-80l129 141h93l70 -141h-80z" />
    <glyph glyph-name="tilde" unicode="&#x2dc;" horiz-adv-x="333" 
d="M448 749h48c-17 -57 -62 -109 -125 -109c-21 0 -49 11 -67 18c-20 8 -45 20 -69 20c-23 0 -49 -23 -55 -45h-48c17 57 62 109 125 109c21 0 48 -11 67 -18c20 -8 45 -20 69 -20c23 0 49 23 55 45z" />
    <glyph glyph-name="macron" unicode="&#xaf;" horiz-adv-x="333" 
d="M463 657h-313l12 58h313z" />
    <glyph glyph-name="breve" unicode="&#x2d8;" horiz-adv-x="333" 
d="M175 765h49c0 -55 35 -77 89 -77c56 0 96 20 122 77h49c-25 -95 -98 -136 -187 -136c-82 0 -139 41 -122 136z" />
    <glyph glyph-name="dotaccent" unicode="&#x2d9;" horiz-adv-x="250" 
d="M303 650h-79l21 100h79z" />
    <glyph glyph-name="dieresis" unicode="&#xa8;" horiz-adv-x="333" 
d="M211 750h79l-21 -100h-79zM419 650h-79l21 100h79z" />
    <glyph glyph-name="ring" unicode="&#x2da;" horiz-adv-x="250" 
d="M251 593c-55 0 -92 46 -80 102c11 55 68 101 123 101s93 -45 81 -101s-68 -102 -124 -102zM286 756c-32 0 -68 -29 -75 -61s16 -62 49 -62s68 29 75 62s-17 61 -49 61z" />
    <glyph glyph-name="cedilla" unicode="&#xb8;" horiz-adv-x="333" 
d="M96 -105l-13 19l81 86h48l-59 -60l2 -2c33 9 113 0 98 -70c-16 -73 -90 -94 -152 -92c-28 4 -53 10 -78 21l25 40c21 -8 38 -15 62 -15c32 0 44 10 58 23c11 11 15 42 -11 54c-19 8 -41 2 -61 -4z" />
    <glyph glyph-name="hungarumlaut" unicode="&#x2dd;" horiz-adv-x="333" 
d="M194 624l119 141h109l-161 -141h-67zM375 624l119 141h109l-161 -141h-67z" />
    <glyph glyph-name="ogonek" unicode="&#x2db;" horiz-adv-x="333" 
d="M32 13h67c-17 -20 -40 -62 -45 -85c-8 -36 16 -52 54 -49c43 -2 59 14 80 29l-16 -79c-33 -14 -63 -20 -89 -20c-59 0 -120 30 -103 98c7 32 33 77 52 106z" />
    <glyph glyph-name="caron" unicode="&#x2c7;" horiz-adv-x="333" 
d="M264 765l46 -94l86 94h80l-130 -141h-93l-69 141h80z" />
    <glyph glyph-name="emdash" unicode="&#x2014;" horiz-adv-x="1000" 
d="M58 275l15 70h1000l-15 -70h-1000z" />
    <glyph glyph-name="AE" unicode="&#xc6;" horiz-adv-x="833" 
d="M291 290h197l81 385h-14zM427 0l46 215h-233l-146 -215h-94l525 750h419l-16 -75h-276l-52 -248h257l-16 -75h-257l-59 -277h273l-16 -75h-355z" />
    <glyph glyph-name="ordfeminine" unicode="&#xaa;" horiz-adv-x="300" 
d="M373 457l-7 -35c-5 -1 -9 -1 -13 -2c-46 -2 -60 2 -55 47h-2c-17 -29 -56 -54 -90 -54c-72 0 -85 37 -72 98c2 12 14 60 69 81c31 12 110 37 118 42c12 8 13 21 17 38c8 38 -4 52 -46 52c-47 0 -57 -19 -65 -58h-46c12 69 56 99 129 99c107 0 80 -83 78 -91l-40 -191
c-2 -9 -7 -21 3 -26c7 -1 15 -1 22 0zM302 521l17 81c-28 -14 -58 -24 -89 -36c-26 -10 -38 -35 -43 -58c-7 -33 -4 -55 38 -55c20 0 65 14 77 68z" />
    <glyph glyph-name="Lslash" unicode="&#x141;" 
d="M83 0l69 325l-113 -81l19 88l113 81l71 337h83l-56 -267l160 116l-18 -88l-161 -116l-68 -320h306l-16 -75h-389z" />
    <glyph glyph-name="Oslash" unicode="&#xd8;" horiz-adv-x="611" 
d="M203 195l359 429c-17 46 -51 63 -109 66c-127 7 -190 -131 -225 -298c-16 -81 -25 -147 -25 -197zM571 574l-362 -435c11 -52 45 -82 111 -82c138 0 185 118 232 335c15 68 23 132 19 182zM143 61l-86 -104l-32 24l102 122c-22 77 -7 183 16 291c35 172 104 371 327 371
c78 0 127 -23 155 -65l80 96l33 -22l-94 -112c26 -74 16 -175 -5 -268c-45 -208 -119 -412 -338 -412c-83 0 -132 32 -158 79z" />
    <glyph glyph-name="OE" unicode="&#x152;" horiz-adv-x="833" 
d="M528 75h273l-16 -75h-351l13 59h-2c-54 -51 -93 -75 -153 -77c-115 -4 -163 68 -176 158c-8 78 0 148 19 234c21 93 43 179 100 265c53 80 131 126 218 126c54 0 99 -27 125 -79h2l13 64h353l-16 -75h-275l-52 -246h257l-16 -75h-257zM479 248l62 292
c21 102 -18 150 -94 150c-74 0 -133 -42 -169 -128c-23 -57 -48 -147 -61 -207c-21 -102 -56 -298 86 -298c85 0 149 45 176 191z" />
    <glyph glyph-name="ordmasculine" unicode="&#xba;" horiz-adv-x="300" 
d="M407 600c-8 -36 -18 -72 -37 -107c-31 -55 -74 -80 -127 -80c-63 0 -96 25 -103 80c-5 35 0 71 8 107c6 31 19 62 32 88c26 48 79 77 133 77s93 -29 99 -77c3 -26 1 -57 -5 -88zM198 585c-16 -78 -12 -132 48 -132c61 0 87 54 103 132c22 101 9 140 -45 140
c-53 0 -84 -39 -106 -140z" />
    <glyph glyph-name="ae" unicode="&#xe6;" horiz-adv-x="667" 
d="M687 270h-260c-3 -17 -35 -137 -17 -191c10 -24 34 -27 63 -27c74 0 103 71 116 129h73c-20 -103 -86 -196 -202 -196c-71 0 -107 28 -123 91c-50 -61 -106 -91 -177 -91c-94 0 -124 64 -105 150c17 82 54 120 103 145c49 26 109 37 174 64c33 14 45 42 51 68
c13 61 -7 90 -69 90c-63 0 -94 -42 -104 -98h-75c13 68 65 167 191 167c51 0 98 -19 119 -63c37 39 86 61 135 61c169 0 137 -171 107 -299zM441 335h178c3 14 47 167 -49 167c-94 0 -112 -97 -129 -167zM334 218l18 81l-63 -27c-74 -31 -134 -50 -152 -135
c-10 -49 5 -85 59 -85c36 0 68 12 95 41c23 24 30 64 43 125z" />
    <glyph glyph-name="dotlessi" unicode="&#x131;" horiz-adv-x="222" 
d="M151 0h-79l118 556h79z" />
    <glyph glyph-name="lslash" unicode="&#x142;" horiz-adv-x="222" 
d="M72 0l79 372l-92 -55l16 74l91 53l65 306h79l-54 -255l91 53l-14 -68l-92 -55l-90 -425h-79z" />
    <glyph glyph-name="oslash" unicode="&#xf8;" 
d="M179 151l258 286c-7 46 -34 67 -79 67c-82 0 -131 -63 -167 -231c-10 -47 -12 -89 -12 -122zM439 391l-254 -283c10 -35 33 -56 77 -56c93 0 135 90 163 221c10 48 15 88 14 118zM124 40l-78 -86l-27 19l89 99c-12 34 -21 96 6 226c36 169 120 273 257 273
c58 0 105 -21 130 -63l67 74l23 -23l-75 -83c11 -32 11 -108 -4 -178c-51 -240 -147 -313 -257 -313c-64 0 -107 18 -131 55z" />
    <glyph glyph-name="oe" unicode="&#x153;" horiz-adv-x="722" 
d="M732 274h-260l-10 -55c-14 -67 -33 -167 58 -167c75 0 99 75 118 132h75c-21 -75 -80 -199 -203 -199c-61 0 -105 27 -125 80c-42 -50 -99 -80 -158 -80c-180 0 -155 167 -126 304c41 193 122 282 243 282c60 0 114 -25 135 -78c38 48 87 78 144 78
c206 0 116 -265 109 -297zM179 266c-17 -76 -49 -214 61 -214c95 0 121 81 154 234c33 158 23 218 -53 218c-116 0 -145 -157 -162 -238zM486 339h185c10 64 41 165 -53 165c-92 0 -115 -101 -132 -165z" />
    <glyph glyph-name="germandbls" unicode="&#xdf;" 
d="M315 393l14 67c79 0 119 36 136 113c14 68 -2 125 -77 125c-33 0 -63 -19 -85 -46c-19 -28 -29 -67 -35 -98l-118 -554h-79l114 538c13 61 26 113 76 164c44 45 96 63 151 63c109 0 153 -80 130 -185c-13 -64 -42 -119 -110 -148c79 -35 79 -120 61 -205
c-24 -112 -80 -234 -205 -232c-22 0 -50 2 -66 15l17 78c17 -18 46 -31 78 -26c53 12 79 93 91 151c10 47 27 120 1 154c-20 28 -61 25 -94 26z" />
    <glyph glyph-name="onesuperior" unicode="&#xb9;" horiz-adv-x="300" 
d="M304 624h-104l9 43c70 1 111 13 133 83h50l-95 -450h-62z" />
    <glyph glyph-name="logicalnot" unicode="&#xac;" 
d="M412 117l42 197h-343l15 70h413l-57 -267h-70z" />
    <glyph glyph-name="mu" unicode="&#xb5;" horiz-adv-x="516" 
d="M343 0l16 73h-2c-40 -57 -97 -88 -151 -88c-21 0 -36 13 -51 18l-41 -192h-79l158 745h79l-92 -432c-10 -47 0 -72 56 -72c38 0 77 17 105 49c24 28 37 66 44 98l76 357h79l-118 -556h-79z" />
    <glyph glyph-name="trademark" unicode="&#x2122;" horiz-adv-x="750" 
d="M878 750l-89 -421h-55l77 361h-2l-195 -361h-32l-38 361h-2l-77 -361h-55l89 421h89l35 -297h2l165 297h88zM439 750l-12 -60h-109l-77 -361h-61l77 361h-110l12 60h280z" />
    <glyph glyph-name="Eth" unicode="&#xd0;" horiz-adv-x="611" 
d="M82 0l88 412h-73l11 53h73l60 285h206c234 0 220 -190 181 -375c-39 -183 -122 -375 -325 -375h-221zM308 675l-44 -210h149l-11 -53h-149l-72 -337h133c122 0 183 91 231 315c36 171 30 285 -104 285h-133z" />
    <glyph glyph-name="onehalf" unicode="&#xbd;" horiz-adv-x="750" 
d="M91 0l611 750h63l-611 -750h-63zM279 624h-104l9 43c70 1 111 13 133 83h50l-95 -450h-62zM665 184l-104 -74c-22 -19 -35 -30 -42 -58h201l-11 -52h-262c8 32 19 65 41 97c10 16 31 42 47 55l107 80c38 28 58 56 66 94c9 42 2 72 -48 72c-59 0 -75 -54 -84 -101h-62
l6 28c7 33 23 64 50 90c18 14 50 35 105 35c83 0 114 -51 98 -125c-14 -66 -49 -99 -108 -141z" />
    <glyph glyph-name="plusminus" unicode="&#xb1;" 
d="M289 349l33 156h70l-33 -156h172l-15 -70h-172l-33 -159h-70l33 159h-171l15 70h171zM44 0l15 70h413l-15 -70h-413z" />
    <glyph glyph-name="Thorn" unicode="&#xde;" horiz-adv-x="556" 
d="M290 569l-60 -282h81c114 0 187 17 214 146c26 121 -48 136 -149 136h-86zM86 0l159 750h83l-22 -106h114c58 0 129 -7 164 -49c37 -42 40 -100 27 -160c-17 -83 -59 -166 -148 -201c-57 -22 -142 -22 -199 -22h-50l-45 -212h-83z" />
    <glyph glyph-name="onequarter" unicode="&#xbc;" horiz-adv-x="750" 
d="M695 372l-179 -215h135l46 215h-2zM143 0l611 750h63l-611 -750h-63zM475 161l241 289h58l-63 -293h38l-10 -50h-38l-23 -107h-60l23 107h-177zM271 624h-104l9 43c70 1 111 13 133 83h50l-95 -450h-62z" />
    <glyph glyph-name="divide" unicode="&#xf7;" 
d="M91 219l14 70h413l-14 -70h-413zM375 405h-79l21 100h79zM290 3h-79l21 100h79z" />
    <glyph glyph-name="brokenbar" unicode="&#xa6;" horiz-adv-x="410" 
d="M252 779h65v-403h-65v403zM252 202h65v-403h-65v403z" />
    <glyph glyph-name="degree" unicode="&#xb0;" horiz-adv-x="400" 
d="M478 600c-18 -83 -100 -150 -182 -150c-83 0 -136 67 -118 150c16 82 98 150 181 150c82 0 136 -68 119 -150zM416 600c10 48 -22 88 -71 88c-48 0 -96 -40 -105 -88c-11 -49 20 -88 69 -88c48 0 96 39 107 88z" />
    <glyph glyph-name="thorn" unicode="&#xfe;" 
d="M210 279c-24 -113 -37 -227 58 -227c82 0 126 86 158 236c23 108 27 216 -63 216c-103 0 -136 -146 -153 -225zM32 -188l199 938h79l-54 -256h2c33 52 83 77 128 77c141 0 155 -131 123 -277c-25 -122 -93 -309 -243 -309c-56 0 -82 28 -101 73h-2l-52 -246h-79z" />
    <glyph glyph-name="threequarters" unicode="&#xbe;" horiz-adv-x="750" 
d="M709 372l-179 -215h135l46 215h-2zM157 0l611 750h63l-611 -750h-63zM489 161l241 289h58l-63 -293h38l-10 -50h-38l-23 -107h-60l23 107h-177zM226 504l12 56c42 2 88 -13 106 70c9 44 2 68 -46 68c-52 0 -69 -36 -79 -81h-58c14 75 62 133 151 133
c72 0 112 -44 98 -112c-11 -48 -34 -84 -90 -100v-2c54 -11 70 -52 59 -103c-18 -84 -70 -142 -167 -142s-119 59 -99 141h59c-15 -48 -5 -90 55 -90c46 0 76 30 86 76c15 72 -8 87 -87 86z" />
    <glyph glyph-name="twosuperior" unicode="&#xb2;" horiz-adv-x="300" 
d="M301 484l-104 -74c-22 -19 -35 -30 -42 -58h201l-11 -52h-262c8 32 19 65 40 97c11 16 31 42 48 55l107 80c38 28 58 56 66 94c9 42 1 72 -49 72c-59 0 -74 -54 -83 -101h-62l6 28c7 33 22 64 50 90c18 14 49 35 104 35c83 0 115 -51 99 -125c-14 -66 -49 -99 -108 -141z
" />
    <glyph glyph-name="registered" unicode="&#xae;" horiz-adv-x="800" 
d="M564 765c216 0 354 -174 308 -390c-47 -219 -259 -393 -475 -393c-217 0 -356 174 -309 393c46 216 259 390 476 390zM551 707c-185 0 -365 -149 -405 -333c-39 -186 79 -334 264 -334s363 148 402 334c40 184 -76 333 -261 333zM541 357l88 -202h-65l-81 202h-97
l-43 -202h-56l93 440h193c36 0 73 0 101 -24c29 -18 39 -58 30 -94c-18 -87 -87 -119 -163 -120zM395 399h81c61 0 154 -9 173 80c14 66 -43 74 -97 74h-124z" />
    <glyph glyph-name="minus" unicode="&#x2212;" 
d="M91 219l14 70h413l-14 -70h-413z" />
    <glyph glyph-name="eth" unicode="&#xf0;" 
d="M243 672l87 53c-15 19 -35 48 -51 64l54 42c26 -28 33 -37 58 -69l82 51l22 -31l-83 -51c93 -120 138 -258 100 -434c-51 -241 -143 -312 -265 -312c-120 0 -184 72 -133 312c36 168 120 274 257 274c20 0 42 -5 53 -15l3 2c-11 39 -50 101 -74 136l-88 -53zM191 272
c-28 -131 -22 -220 70 -220c94 0 136 89 164 220c36 168 15 232 -68 232c-81 0 -130 -64 -166 -232z" />
    <glyph glyph-name="multiply" unicode="&#xd7;" 
d="M255 254l-124 157l61 49l122 -157l192 158l38 -50l-190 -157l124 -157l-61 -49l-123 157l-192 -157l-37 49z" />
    <glyph glyph-name="threesuperior" unicode="&#xb3;" horiz-adv-x="300" 
d="M222 504l12 56c42 2 88 -13 106 70c9 44 2 68 -46 68c-52 0 -69 -36 -79 -81h-58c14 75 62 133 151 133c72 0 112 -44 98 -112c-11 -48 -34 -84 -90 -100v-2c54 -11 70 -52 59 -103c-18 -84 -70 -142 -167 -142s-119 59 -99 141h59c-15 -48 -5 -90 55 -90
c46 0 76 30 86 76c15 72 -8 87 -87 86z" />
    <glyph glyph-name="copyright" unicode="&#xa9;" horiz-adv-x="800" 
d="M397 -18c-217 0 -356 174 -309 393c45 214 259 390 476 390c216 0 353 -176 308 -390c-47 -219 -259 -393 -475 -393zM410 40c185 0 363 149 403 335c39 184 -77 332 -262 332s-365 -148 -404 -332c-40 -186 78 -335 263 -335zM606 303h58c-29 -93 -123 -153 -214 -153
c-132 0 -197 99 -170 228c28 128 130 225 263 225c94 0 157 -55 153 -149h-58c3 62 -42 101 -104 101c-102 0 -174 -79 -194 -176c-21 -95 19 -181 120 -181c62 0 126 40 146 105z" />
    <glyph glyph-name="Aacute" unicode="&#xc1;" horiz-adv-x="556" 
d="M11 0l373 750h110l52 -750h-92l-13 216h-237l-101 -216h-92zM438 291l-12 399h-2l-184 -399h198zM386 818l119 141h109l-161 -141h-67z" />
    <glyph glyph-name="Acircumflex" unicode="&#xc2;" horiz-adv-x="556" 
d="M11 0l373 750h110l52 -750h-92l-13 216h-237l-101 -216h-92zM438 291l-12 399h-2l-184 -399h198zM519 818l-46 94l-86 -94h-80l129 141h93l70 -141h-80z" />
    <glyph glyph-name="Adieresis" unicode="&#xc4;" horiz-adv-x="556" 
d="M11 0l373 750h110l52 -750h-92l-13 216h-237l-101 -216h-92zM438 291l-12 399h-2l-184 -399h198zM365 944h79l-22 -100h-79zM572 844h-79l22 100h79z" />
    <glyph glyph-name="Agrave" unicode="&#xc0;" horiz-adv-x="556" 
d="M11 0l373 750h110l52 -750h-92l-13 216h-237l-101 -216h-92zM438 291l-12 399h-2l-184 -399h198zM351 959h109l59 -141h-67z" />
    <glyph glyph-name="Aring" unicode="&#xc5;" horiz-adv-x="556" 
d="M11 0l373 750h110l52 -750h-92l-13 216h-237l-101 -216h-92zM438 291l-12 399h-2l-184 -399h198zM445 787c-55 0 -92 46 -80 102c12 55 68 101 123 101s93 -45 81 -101s-68 -102 -124 -102zM480 950c-32 0 -68 -29 -75 -61s16 -62 49 -62s68 29 75 62s-17 61 -49 61z" />
    <glyph glyph-name="Atilde" unicode="&#xc3;" horiz-adv-x="556" 
d="M11 0l373 750h110l52 -750h-92l-13 216h-237l-101 -216h-92zM438 291l-12 399h-2l-184 -399h198zM601 943h48c-17 -57 -62 -109 -125 -109c-21 0 -48 11 -67 18c-20 8 -45 20 -69 20c-23 0 -49 -23 -55 -45h-48c17 57 62 109 125 109c21 0 49 -11 67 -18
c20 -8 45 -20 69 -20c23 0 49 23 55 45z" />
    <glyph glyph-name="Ccedilla" unicode="&#xc7;" horiz-adv-x="556" 
d="M129 -203l25 40c21 -8 38 -15 62 -15c32 0 44 10 58 23c11 11 15 42 -11 54c-19 8 -41 2 -61 -4l-13 19l66 70c-194 22 -156 231 -120 400s106 381 319 381c142 0 193 -106 161 -240h-83c17 89 4 165 -100 165c-144 0 -190 -205 -211 -304c-26 -102 -76 -329 76 -329
c99 0 137 81 165 163c5 17 10 34 16 51h83c-6 -15 -9 -31 -14 -46c-18 -61 -31 -107 -78 -159c-48 -51 -102 -80 -168 -83l-42 -43l2 -2c33 9 113 0 98 -70c-16 -73 -90 -94 -152 -92c-28 4 -53 10 -78 21z" />
    <glyph glyph-name="Eacute" unicode="&#xc9;" 
d="M451 0h-377l159 750h375l-16 -75h-292l-52 -248h274l-16 -75h-274l-59 -277h294zM358 818l119 141h109l-161 -141h-67z" />
    <glyph glyph-name="Ecircumflex" unicode="&#xca;" 
d="M451 0h-377l159 750h375l-16 -75h-292l-52 -248h274l-16 -75h-274l-59 -277h294zM491 818l-46 94l-86 -94h-80l129 141h93l70 -141h-80z" />
    <glyph glyph-name="Edieresis" unicode="&#xcb;" 
d="M451 0h-377l159 750h375l-16 -75h-292l-52 -248h274l-16 -75h-274l-59 -277h294zM337 944h79l-22 -100h-79zM544 844h-79l22 100h79z" />
    <glyph glyph-name="Egrave" unicode="&#xc8;" 
d="M451 0h-377l159 750h375l-16 -75h-292l-52 -248h274l-16 -75h-274l-59 -277h294zM323 959h109l59 -141h-67z" />
    <glyph glyph-name="Iacute" unicode="&#xcd;" horiz-adv-x="278" 
d="M181 0h-83l159 750h83zM247 818l119 141h109l-161 -141h-67z" />
    <glyph glyph-name="Icircumflex" unicode="&#xce;" horiz-adv-x="278" 
d="M181 0h-83l159 750h83zM380 818l-46 94l-86 -94h-80l129 141h93l70 -141h-80z" />
    <glyph glyph-name="Idieresis" unicode="&#xcf;" horiz-adv-x="278" 
d="M181 0h-83l159 750h83zM226 944h79l-22 -100h-79zM433 844h-79l22 100h79z" />
    <glyph glyph-name="Igrave" unicode="&#xcc;" horiz-adv-x="278" 
d="M181 0h-83l159 750h83zM212 959h109l59 -141h-67z" />
    <glyph glyph-name="Ntilde" unicode="&#xd1;" horiz-adv-x="611" 
d="M480 138l130 612h83l-159 -750h-136l-82 600c-5 34 -7 68 -4 113h-2c-8 -38 -15 -77 -23 -115l-127 -598h-83l159 750h135l83 -614c4 -23 6 -47 8 -82h2c5 27 10 56 16 84zM628 943h48c-17 -57 -62 -109 -125 -109c-21 0 -48 11 -67 18c-20 8 -45 20 -69 20
c-23 0 -49 -23 -55 -45h-48c17 57 62 109 125 109c21 0 49 -11 67 -18c20 -8 45 -20 69 -20c23 0 49 23 55 45z" />
    <glyph glyph-name="Oacute" unicode="&#xd3;" horiz-adv-x="611" 
d="M142 391c37 172 106 374 329 374c215 0 203 -195 167 -365l-2 -9c-45 -208 -115 -409 -334 -409s-202 201 -160 409zM550 389l1 7c35 164 30 294 -100 294c-126 0 -187 -130 -222 -294l-1 -7c-45 -217 -48 -332 90 -332s185 115 232 332zM413 818l119 141h109l-161 -141
h-67z" />
    <glyph glyph-name="Ocircumflex" unicode="&#xd4;" horiz-adv-x="611" 
d="M142 391c37 172 106 374 329 374c215 0 203 -195 167 -365l-2 -9c-45 -208 -115 -409 -334 -409s-202 201 -160 409zM550 389l1 7c35 164 30 294 -100 294c-126 0 -187 -130 -222 -294l-1 -7c-45 -217 -48 -332 90 -332s185 115 232 332zM546 818l-46 94l-86 -94h-80
l129 141h93l70 -141h-80z" />
    <glyph glyph-name="Odieresis" unicode="&#xd6;" horiz-adv-x="611" 
d="M142 391c37 172 106 374 329 374c215 0 203 -195 167 -365l-2 -9c-45 -208 -115 -409 -334 -409s-202 201 -160 409zM550 389l1 7c35 164 30 294 -100 294c-126 0 -187 -130 -222 -294l-1 -7c-45 -217 -48 -332 90 -332s185 115 232 332zM392 944h79l-22 -100h-79z
M599 844h-79l22 100h79z" />
    <glyph glyph-name="Ograve" unicode="&#xd2;" horiz-adv-x="611" 
d="M142 391c37 172 106 374 329 374c215 0 203 -195 167 -365l-2 -9c-45 -208 -115 -409 -334 -409s-202 201 -160 409zM550 389l1 7c35 164 30 294 -100 294c-126 0 -187 -130 -222 -294l-1 -7c-45 -217 -48 -332 90 -332s185 115 232 332zM378 959h109l59 -141h-67z" />
    <glyph glyph-name="Otilde" unicode="&#xd5;" horiz-adv-x="611" 
d="M142 391c37 172 106 374 329 374c215 0 203 -195 167 -365l-2 -9c-45 -208 -115 -409 -334 -409s-202 201 -160 409zM550 389l1 7c35 164 30 294 -100 294c-126 0 -187 -130 -222 -294l-1 -7c-45 -217 -48 -332 90 -332s185 115 232 332zM628 943h48
c-17 -57 -62 -109 -125 -109c-21 0 -48 11 -67 18c-20 8 -45 20 -69 20c-23 0 -49 -23 -55 -45h-48c17 57 62 109 125 109c21 0 49 -11 67 -18c20 -8 45 -20 69 -20c23 0 49 23 55 45z" />
    <glyph glyph-name="Scaron" unicode="&#x160;" horiz-adv-x="556" 
d="M601 553h-83c1 5 3 10 4 14c15 71 -16 123 -94 123c-121 0 -150 -76 -163 -134c-11 -52 5 -84 49 -102l110 -45c131 -53 146 -103 125 -202c-30 -142 -137 -225 -281 -225c-74 0 -157 21 -180 119c-8 37 6 97 14 137h83l-5 -23c-21 -98 -8 -158 108 -158
c84 0 152 43 171 131c24 114 -22 115 -91 144c-38 16 -100 37 -135 58c-63 36 -69 96 -53 170c26 124 131 205 253 205c131 0 200 -65 172 -194c-1 -6 -3 -12 -4 -18zM417 959l46 -94l86 94h80l-130 -141h-93l-69 141h80z" />
    <glyph glyph-name="Uacute" unicode="&#xda;" horiz-adv-x="611" 
d="M119 181l121 569h83l-116 -546c-12 -59 -17 -147 111 -147s161 88 173 147l116 546h83l-121 -569c-28 -134 -131 -199 -267 -199s-211 65 -183 199zM413 818l119 141h109l-161 -141h-67z" />
    <glyph glyph-name="Ucircumflex" unicode="&#xdb;" horiz-adv-x="611" 
d="M119 181l121 569h83l-116 -546c-12 -59 -17 -147 111 -147s161 88 173 147l116 546h83l-121 -569c-28 -134 -131 -199 -267 -199s-211 65 -183 199zM546 818l-46 94l-86 -94h-80l129 141h93l70 -141h-80z" />
    <glyph glyph-name="Udieresis" unicode="&#xdc;" horiz-adv-x="611" 
d="M119 181l121 569h83l-116 -546c-12 -59 -17 -147 111 -147s161 88 173 147l116 546h83l-121 -569c-28 -134 -131 -199 -267 -199s-211 65 -183 199zM392 944h79l-22 -100h-79zM599 844h-79l22 100h79z" />
    <glyph glyph-name="Ugrave" unicode="&#xd9;" horiz-adv-x="611" 
d="M119 181l121 569h83l-116 -546c-12 -59 -17 -147 111 -147s161 88 173 147l116 546h83l-121 -569c-28 -134 -131 -199 -267 -199s-211 65 -183 199zM378 959h109l59 -141h-67z" />
    <glyph glyph-name="Yacute" unicode="&#xdd;" horiz-adv-x="556" 
d="M262 750l95 -376l256 376h92l-324 -459l-62 -291h-83l62 291l-128 459h92zM386 818l119 141h109l-161 -141h-67z" />
    <glyph glyph-name="Ydieresis" unicode="&#x178;" horiz-adv-x="556" 
d="M262 750l95 -376l256 376h92l-324 -459l-62 -291h-83l62 291l-128 459h92zM365 944h79l-22 -100h-79zM572 844h-79l22 100h79z" />
    <glyph glyph-name="Zcaron" unicode="&#x17d;" 
d="M473 0h-445l15 72l482 603h-345l16 75h431l-15 -72l-482 -603h359zM389 959l46 -94l86 94h80l-130 -141h-93l-69 141h80z" />
    <glyph glyph-name="aacute" unicode="&#xe1;" horiz-adv-x="444" 
d="M322 165l29 135c-44 -23 -92 -40 -138 -60c-41 -17 -61 -58 -69 -96c-12 -56 -6 -92 58 -92c30 0 101 23 120 113zM429 58l-12 -58c-6 -1 -12 -2 -19 -4c-8 0 -15 -1 -22 -1c-51 0 -68 13 -61 80h-2c-29 -49 -89 -90 -142 -90c-111 0 -130 62 -109 163
c5 21 25 101 109 135c49 20 170 62 182 70c16 11 21 27 25 48l4 16c13 63 -6 87 -70 87c-69 0 -87 -30 -100 -90l-2 -8h-71l3 11c22 107 89 154 197 154c141 0 130 -101 122 -138l-72 -341c-3 -13 -5 -27 7 -33c5 -1 10 -2 16 -2s12 1 17 1zM289 624l119 141h109l-161 -141
h-67z" />
    <glyph glyph-name="acircumflex" unicode="&#xe2;" horiz-adv-x="444" 
d="M322 165l29 135c-44 -23 -92 -40 -138 -60c-41 -17 -61 -58 -69 -96c-12 -56 -6 -92 58 -92c30 0 101 23 120 113zM429 58l-12 -58c-6 -1 -12 -2 -19 -4c-8 0 -15 -1 -22 -1c-51 0 -68 13 -61 80h-2c-29 -49 -89 -90 -142 -90c-111 0 -130 62 -109 163
c5 21 25 101 109 135c49 20 170 62 182 70c16 11 21 27 25 48l4 16c13 63 -6 87 -70 87c-69 0 -87 -30 -100 -90l-2 -8h-71l3 11c22 107 89 154 197 154c141 0 130 -101 122 -138l-72 -341c-3 -13 -5 -27 7 -33c5 -1 10 -2 16 -2s12 1 17 1zM422 624l-46 94l-86 -94h-80
l129 141h93l70 -141h-80z" />
    <glyph glyph-name="adieresis" unicode="&#xe4;" horiz-adv-x="444" 
d="M322 165l29 135c-44 -23 -92 -40 -138 -60c-41 -17 -61 -58 -69 -96c-12 -56 -6 -92 58 -92c30 0 101 23 120 113zM429 58l-12 -58c-6 -1 -12 -2 -19 -4c-8 0 -15 -1 -22 -1c-51 0 -68 13 -61 80h-2c-29 -49 -89 -90 -142 -90c-111 0 -130 62 -109 163
c5 21 25 101 109 135c49 20 170 62 182 70c16 11 21 27 25 48l4 16c13 63 -6 87 -70 87c-69 0 -87 -30 -100 -90l-2 -8h-71l3 11c22 107 89 154 197 154c141 0 130 -101 122 -138l-72 -341c-3 -13 -5 -27 7 -33c5 -1 10 -2 16 -2s12 1 17 1zM267 750h79l-21 -100h-79z
M475 650h-79l21 100h79z" />
    <glyph glyph-name="agrave" unicode="&#xe0;" horiz-adv-x="444" 
d="M322 165l29 135c-44 -23 -92 -40 -138 -60c-41 -17 -61 -58 -69 -96c-12 -56 -6 -92 58 -92c30 0 101 23 120 113zM429 58l-12 -58c-6 -1 -12 -2 -19 -4c-8 0 -15 -1 -22 -1c-51 0 -68 13 -61 80h-2c-29 -49 -89 -90 -142 -90c-111 0 -130 62 -109 163
c5 21 25 101 109 135c49 20 170 62 182 70c16 11 21 27 25 48l4 16c13 63 -6 87 -70 87c-69 0 -87 -30 -100 -90l-2 -8h-71l3 11c22 107 89 154 197 154c141 0 130 -101 122 -138l-72 -341c-3 -13 -5 -27 7 -33c5 -1 10 -2 16 -2s12 1 17 1zM254 765h109l59 -141h-67z" />
    <glyph glyph-name="aring" unicode="&#xe5;" horiz-adv-x="444" 
d="M322 165l29 135c-44 -23 -92 -40 -138 -60c-41 -17 -61 -58 -69 -96c-12 -56 -6 -92 58 -92c30 0 101 23 120 113zM429 58l-12 -58c-6 -1 -12 -2 -19 -4c-8 0 -15 -1 -22 -1c-51 0 -68 13 -61 80h-2c-29 -49 -89 -90 -142 -90c-111 0 -130 62 -109 163
c5 21 25 101 109 135c49 20 170 62 182 70c16 11 21 27 25 48l4 16c13 63 -6 87 -70 87c-69 0 -87 -30 -100 -90l-2 -8h-71l3 11c22 107 89 154 197 154c141 0 130 -101 122 -138l-72 -341c-3 -13 -5 -27 7 -33c5 -1 10 -2 16 -2s12 1 17 1zM339 623c-55 0 -92 46 -80 102
c12 55 69 101 124 101s92 -45 80 -101s-68 -102 -124 -102zM374 786c-32 0 -68 -29 -75 -61s16 -62 49 -62s68 29 75 62s-17 61 -49 61z" />
    <glyph glyph-name="atilde" unicode="&#xe3;" horiz-adv-x="444" 
d="M322 165l29 135c-44 -23 -92 -40 -138 -60c-41 -17 -61 -58 -69 -96c-12 -56 -6 -92 58 -92c30 0 101 23 120 113zM429 58l-12 -58c-6 -1 -12 -2 -19 -4c-8 0 -15 -1 -22 -1c-51 0 -68 13 -61 80h-2c-29 -49 -89 -90 -142 -90c-111 0 -130 62 -109 163
c5 21 25 101 109 135c49 20 170 62 182 70c16 11 21 27 25 48l4 16c13 63 -6 87 -70 87c-69 0 -87 -30 -100 -90l-2 -8h-71l3 11c22 107 89 154 197 154c141 0 130 -101 122 -138l-72 -341c-3 -13 -5 -27 7 -33c5 -1 10 -2 16 -2s12 1 17 1zM504 749h48
c-17 -57 -62 -109 -125 -109c-21 0 -49 11 -67 18c-20 8 -45 20 -69 20c-23 0 -49 -23 -55 -45h-48c17 57 62 109 125 109c21 0 48 -11 67 -18c20 -8 45 -20 69 -20c23 0 49 23 55 45z" />
    <glyph glyph-name="ccedilla" unicode="&#xe7;" horiz-adv-x="444" 
d="M139 -86l68 73c-142 15 -134 148 -105 284s85 300 255 300c112 0 148 -87 125 -190h-74c12 61 9 123 -66 123c-115 0 -145 -171 -162 -250c-16 -73 -38 -202 63 -202c86 0 110 74 128 142h75c-24 -101 -80 -197 -190 -207l-47 -47l2 -2c33 9 113 0 98 -70
c-16 -73 -90 -94 -152 -92c-28 4 -53 10 -78 21l25 40c21 -8 38 -15 62 -15c32 0 44 10 58 23c11 11 15 42 -11 54c-19 8 -41 2 -61 -4z" />
    <glyph glyph-name="eacute" unicode="&#xe9;" horiz-adv-x="444" 
d="M196 336h188c11 65 37 168 -55 168s-116 -102 -133 -168zM356 185h74l-2 -13c-22 -103 -96 -187 -208 -187c-105 0 -165 70 -118 294c25 117 93 292 240 292c180 0 134 -170 111 -300h-270c-14 -75 -58 -219 53 -219c69 0 105 58 118 116c1 5 1 11 2 17zM289 624l119 141
h109l-161 -141h-67z" />
    <glyph glyph-name="ecircumflex" unicode="&#xea;" horiz-adv-x="444" 
d="M196 336h188c11 65 37 168 -55 168s-116 -102 -133 -168zM356 185h74l-2 -13c-22 -103 -96 -187 -208 -187c-105 0 -165 70 -118 294c25 117 93 292 240 292c180 0 134 -170 111 -300h-270c-14 -75 -58 -219 53 -219c69 0 105 58 118 116c1 5 1 11 2 17zM422 624l-46 94
l-86 -94h-80l129 141h93l70 -141h-80z" />
    <glyph glyph-name="edieresis" unicode="&#xeb;" horiz-adv-x="444" 
d="M196 336h188c11 65 37 168 -55 168s-116 -102 -133 -168zM356 185h74l-2 -13c-22 -103 -96 -187 -208 -187c-105 0 -165 70 -118 294c25 117 93 292 240 292c180 0 134 -170 111 -300h-270c-14 -75 -58 -219 53 -219c69 0 105 58 118 116c1 5 1 11 2 17zM267 750h79
l-21 -100h-79zM475 650h-79l21 100h79z" />
    <glyph glyph-name="egrave" unicode="&#xe8;" horiz-adv-x="444" 
d="M196 336h188c11 65 37 168 -55 168s-116 -102 -133 -168zM356 185h74l-2 -13c-22 -103 -96 -187 -208 -187c-105 0 -165 70 -118 294c25 117 93 292 240 292c180 0 134 -170 111 -300h-270c-14 -75 -58 -219 53 -219c69 0 105 58 118 116c1 5 1 11 2 17zM254 765h109
l59 -141h-67z" />
    <glyph glyph-name="iacute" unicode="&#xed;" horiz-adv-x="222" 
d="M151 0h-79l118 556h79zM178 624l119 141h109l-161 -141h-67z" />
    <glyph glyph-name="icircumflex" unicode="&#xee;" horiz-adv-x="222" 
d="M151 0h-79l118 556h79zM311 624l-46 94l-86 -94h-80l129 141h93l70 -141h-80z" />
    <glyph glyph-name="idieresis" unicode="&#xef;" horiz-adv-x="222" 
d="M151 0h-79l118 556h79zM156 750h79l-21 -100h-79zM364 650h-79l21 100h79z" />
    <glyph glyph-name="igrave" unicode="&#xec;" horiz-adv-x="222" 
d="M151 0h-79l118 556h79zM143 765h109l59 -141h-67z" />
    <glyph glyph-name="ntilde" unicode="&#xf1;" 
d="M268 556l-13 -61h2c48 48 95 76 155 76c83 0 128 -44 107 -142l-91 -429h-79l87 407c12 58 1 97 -63 97c-29 0 -59 -11 -84 -31c-39 -29 -49 -61 -58 -101l-79 -372h-79l118 556h77zM532 749h48c-17 -57 -62 -109 -125 -109c-21 0 -49 11 -67 18c-20 8 -45 20 -69 20
c-23 0 -49 -23 -55 -45h-48c17 57 62 109 125 109c21 0 48 -11 67 -18c20 -8 45 -20 69 -20c23 0 49 23 55 45z" />
    <glyph glyph-name="oacute" unicode="&#xf3;" 
d="M512 297c-51 -241 -143 -312 -265 -312c-120 0 -184 72 -133 312c36 168 120 274 257 274s177 -106 141 -274zM425 272c36 168 15 232 -68 232c-81 0 -130 -64 -166 -232c-28 -131 -22 -220 70 -220c94 0 136 89 164 220zM317 624l119 141h109l-161 -141h-67z" />
    <glyph glyph-name="ocircumflex" unicode="&#xf4;" 
d="M512 297c-51 -241 -143 -312 -265 -312c-120 0 -184 72 -133 312c36 168 120 274 257 274s177 -106 141 -274zM425 272c36 168 15 232 -68 232c-81 0 -130 -64 -166 -232c-28 -131 -22 -220 70 -220c94 0 136 89 164 220zM450 624l-46 94l-86 -94h-80l129 141h93l70 -141
h-80z" />
    <glyph glyph-name="odieresis" unicode="&#xf6;" 
d="M512 297c-51 -241 -143 -312 -265 -312c-120 0 -184 72 -133 312c36 168 120 274 257 274s177 -106 141 -274zM425 272c36 168 15 232 -68 232c-81 0 -130 -64 -166 -232c-28 -131 -22 -220 70 -220c94 0 136 89 164 220zM295 750h79l-21 -100h-79zM503 650h-79l21 100
h79z" />
    <glyph glyph-name="ograve" unicode="&#xf2;" 
d="M512 297c-51 -241 -143 -312 -265 -312c-120 0 -184 72 -133 312c36 168 120 274 257 274s177 -106 141 -274zM425 272c36 168 15 232 -68 232c-81 0 -130 -64 -166 -232c-28 -131 -22 -220 70 -220c94 0 136 89 164 220zM282 765h109l59 -141h-67z" />
    <glyph glyph-name="otilde" unicode="&#xf5;" 
d="M512 297c-51 -241 -143 -312 -265 -312c-120 0 -184 72 -133 312c36 168 120 274 257 274s177 -106 141 -274zM425 272c36 168 15 232 -68 232c-81 0 -130 -64 -166 -232c-28 -131 -22 -220 70 -220c94 0 136 89 164 220zM532 749h48c-17 -57 -62 -109 -125 -109
c-21 0 -49 11 -67 18c-20 8 -45 20 -69 20c-23 0 -49 -23 -55 -45h-48c17 57 62 109 125 109c21 0 48 -11 67 -18c20 -8 45 -20 69 -20c23 0 49 23 55 45z" />
    <glyph glyph-name="scaron" unicode="&#x161;" horiz-adv-x="444" 
d="M467 407h-77l2 11c12 58 -7 86 -70 86c-56 0 -93 -26 -106 -84c-15 -72 42 -81 91 -104c73 -36 148 -56 126 -160c-22 -105 -109 -171 -221 -171h-7c-48 0 -103 17 -122 58c-21 39 -15 73 -8 107l2 12h75l-2 -11c-13 -62 3 -99 73 -99c64 0 112 26 126 94
c17 79 -62 86 -114 110c-79 32 -123 61 -102 158c20 96 100 157 196 157c108 0 162 -48 139 -159zM320 765l46 -94l86 94h80l-130 -141h-93l-69 141h80z" />
    <glyph glyph-name="uacute" unicode="&#xfa;" 
d="M345 0l16 73h-2c-40 -57 -97 -88 -151 -88c-83 0 -125 44 -104 142l91 429h79l-92 -432c-10 -47 0 -72 56 -72c38 0 77 17 105 49c24 28 37 66 44 98l76 357h79l-118 -556h-79zM317 624l119 141h109l-161 -141h-67z" />
    <glyph glyph-name="ucircumflex" unicode="&#xfb;" 
d="M345 0l16 73h-2c-40 -57 -97 -88 -151 -88c-83 0 -125 44 -104 142l91 429h79l-92 -432c-10 -47 0 -72 56 -72c38 0 77 17 105 49c24 28 37 66 44 98l76 357h79l-118 -556h-79zM450 624l-46 94l-86 -94h-80l129 141h93l70 -141h-80z" />
    <glyph glyph-name="udieresis" unicode="&#xfc;" 
d="M345 0l16 73h-2c-40 -57 -97 -88 -151 -88c-83 0 -125 44 -104 142l91 429h79l-92 -432c-10 -47 0 -72 56 -72c38 0 77 17 105 49c24 28 37 66 44 98l76 357h79l-118 -556h-79zM295 750h79l-21 -100h-79zM503 650h-79l21 100h79z" />
    <glyph glyph-name="ugrave" unicode="&#xf9;" 
d="M345 0l16 73h-2c-40 -57 -97 -88 -151 -88c-83 0 -125 44 -104 142l91 429h79l-92 -432c-10 -47 0 -72 56 -72c38 0 77 17 105 49c24 28 37 66 44 98l76 357h79l-118 -556h-79zM282 765h109l59 -141h-67z" />
    <glyph glyph-name="yacute" unicode="&#xfd;" horiz-adv-x="444" 
d="M179 -13l-56 569h82l23 -482h2l231 482h82l-278 -531c-17 -33 -59 -114 -81 -142c-40 -52 -84 -73 -142 -73c-19 0 -38 3 -55 9l14 70c17 -8 38 -12 57 -12c74 0 88 55 121 110zM289 624l119 141h109l-161 -141h-67z" />
    <glyph glyph-name="ydieresis" unicode="&#xff;" horiz-adv-x="444" 
d="M179 -13l-56 569h82l23 -482h2l231 482h82l-278 -531c-17 -33 -59 -114 -81 -142c-40 -52 -84 -73 -142 -73c-19 0 -38 3 -55 9l14 70c17 -8 38 -12 57 -12c74 0 88 55 121 110zM267 750h79l-21 -100h-79zM475 650h-79l21 100h79z" />
    <glyph glyph-name="zcaron" unicode="&#x17e;" horiz-adv-x="389" 
d="M366 0h-342l13 62l349 429h-247l14 65h329l-14 -65l-348 -426h260zM292 765l46 -94l86 94h80l-130 -141h-93l-69 141h80z" />
    <glyph glyph-name="Delta" unicode="&#x2206;" horiz-adv-x="587" 
d="M30 0l11 53l372 703h88l68 -702l-11 -54h-528zM121 66h370l-41 393c-4 58 -16 142 -17 192h-4c-17 -44 -62 -120 -90 -179z" />
    <glyph glyph-name="Omega" unicode="&#x2126;" horiz-adv-x="641" 
d="M189 67l1 4c-49 70 -81 185 -50 330c44 208 189 348 342 348c162 0 226 -160 187 -343c-32 -150 -118 -272 -192 -335l-1 -4h134l-14 -67h-218l10 49c78 55 165 176 200 340c29 136 2 290 -122 290c-116 0 -215 -126 -251 -292c-32 -153 3 -285 56 -338l-10 -49h-218
l14 67h132z" />
    <glyph glyph-name="uni03BC" unicode="&#x3bc;" horiz-adv-x="516" 
d="M343 0l16 73h-2c-40 -57 -97 -88 -151 -88c-21 0 -36 13 -51 18l-41 -192h-79l158 745h79l-92 -432c-10 -47 0 -72 56 -72c38 0 77 17 105 49c24 28 37 66 44 98l76 357h79l-118 -556h-79z" />
    <glyph glyph-name="pi" unicode="&#x3c0;" horiz-adv-x="524" 
d="M600 479h-70l-71 -331c-17 -82 -19 -120 -18 -148h-74c-5 18 -3 63 14 143l72 336h-156c-34 -134 -111 -372 -168 -479h-75c60 118 133 339 166 479c-54 0 -79 -5 -99 -11v54c26 15 69 28 140 28h361z" />
    <glyph glyph-name="Euro" unicode="&#x20ac;" 
d="M456 285h-229c-7 -104 16 -225 119 -225c62 0 93 13 140 51l-19 -89c-41 -25 -89 -37 -136 -37c-166 0 -208 146 -192 300h-63l19 44h49l6 30c4 16 7 31 11 47h-60l20 44h54c53 166 155 300 323 300c56 0 111 -18 144 -54l-38 -84c-35 42 -66 63 -134 63
c-114 0 -179 -123 -211 -225h271l-20 -44h-263c-4 -15 -7 -28 -9 -40c-3 -12 -5 -24 -7 -37h244z" />
    <glyph glyph-name="a.superior" horiz-adv-x="300" 
d="M373 457l-7 -35c-5 -1 -9 -1 -13 -2c-46 -2 -60 2 -55 47h-2c-17 -29 -56 -54 -90 -54c-72 0 -85 37 -72 98c2 12 14 60 69 81c31 12 110 37 118 42c12 8 13 21 17 38c8 38 -4 52 -46 52c-47 0 -57 -19 -65 -58h-46c12 69 56 99 129 99c107 0 80 -83 78 -91l-40 -191
c-2 -9 -7 -21 3 -26c7 -1 15 -1 22 0zM302 521l17 81c-28 -14 -58 -24 -89 -36c-26 -10 -38 -35 -43 -58c-7 -33 -4 -55 38 -55c20 0 65 14 77 68z" />
    <glyph glyph-name="estimated" unicode="&#x212e;" horiz-adv-x="1081" 
d="M1045 357h-688c-3 0 -6 -1 -6 -5v-208c0 -9 4 -17 9 -24c67 -69 159 -113 261 -113c109 0 207 50 274 127h61c-76 -90 -200 -148 -336 -148c-235 0 -425 171 -425 381c0 212 190 383 425 383s425 -171 425 -383v-10zM889 384v209c0 9 -3 18 -10 25
c-67 66 -158 109 -258 109c-101 0 -193 -44 -259 -112c-7 -7 -11 -16 -11 -26v-205c0 -2 3 -7 6 -7h527c4 0 5 5 5 7z" />
    <glyph glyph-name="partialdiff" unicode="&#x2202;" horiz-adv-x="505" 
d="M246 709l-12 62c36 26 91 56 165 56c119 0 210 -117 151 -396c-58 -269 -179 -441 -335 -441c-117 0 -153 113 -126 241c36 169 153 274 256 274c79 0 116 -55 125 -86h1c3 10 7 29 10 41c37 174 -12 299 -105 299c-55 0 -99 -26 -130 -50zM237 59h1
c83 0 165 131 207 277c-4 45 -36 102 -102 102c-74 0 -153 -95 -177 -208c-22 -103 5 -171 71 -171z" />
    <glyph glyph-name="product" unicode="&#x220f;" horiz-adv-x="796" 
d="M770 667h-96v-769h-73v769h-250v-769h-73v769h-95v71h587v-71z" />
    <glyph glyph-name="summation" unicode="&#x2211;" horiz-adv-x="663" 
d="M643 -102h-463v53l245 366l-235 366v55h437v-66h-338v-4l219 -338l-238 -355v-3h373v-74z" />
    <glyph glyph-name="uni2219" unicode="&#x2219;" horiz-adv-x="250" 
d="M214 204h-91l22 100h91z" />
    <glyph glyph-name="radical" unicode="&#x221a;" horiz-adv-x="693" 
d="M690 879l-204 -1036h-64l-147 490l-69 -26l-14 48l131 50l113 -377c6 -29 14 -63 17 -83l1 -1c3 20 7 53 12 82l170 853h54z" />
    <glyph glyph-name="infinity" unicode="&#x221e;" horiz-adv-x="842" 
d="M794 308v-1c0 -95 -70 -155 -147 -155c-61 0 -109 35 -176 113c-50 -58 -103 -113 -182 -113c-78 0 -144 65 -144 151c0 89 64 154 151 154c73 0 127 -53 178 -114c49 54 98 114 180 114c83 0 140 -61 140 -149zM296 199h1c61 0 107 58 147 102c-43 53 -85 110 -154 110
c-61 0 -95 -51 -95 -109c0 -57 41 -103 101 -103zM648 411h-1c-64 0 -115 -71 -148 -105c63 -71 99 -107 151 -107c60 0 95 54 95 104c0 68 -41 108 -97 108z" />
    <glyph glyph-name="integral" unicode="&#x222b;" horiz-adv-x="504" 
d="M485 889l-12 -55c-8 5 -20 10 -33 10c-16 0 -35 -8 -47 -26c-23 -31 -31 -86 -31 -188c0 -166 12 -360 12 -532c0 -114 -18 -177 -41 -215c-21 -36 -58 -53 -96 -53c-25 0 -49 9 -60 16l13 57c8 -4 23 -11 40 -11c16 0 33 8 44 25c17 26 30 75 30 181
c0 174 -12 371 -12 539c0 116 13 180 51 223c23 27 57 42 91 42c20 0 41 -7 51 -13z" />
    <glyph glyph-name="approxequal" unicode="&#x2248;" horiz-adv-x="613" 
d="M541 443l31 -25c-23 -52 -63 -95 -121 -95c-37 0 -63 14 -107 40c-30 18 -56 33 -86 33c-43 0 -68 -34 -90 -72l-33 24c28 58 74 96 129 96c46 0 80 -26 105 -40c32 -18 54 -34 86 -34c37 0 61 27 86 73zM541 279l31 -25c-24 -53 -62 -95 -121 -95c-37 0 -63 14 -107 40
c-30 18 -56 34 -86 34c-44 0 -68 -36 -90 -74l-33 25c28 59 74 96 129 96c47 0 80 -26 104 -39c32 -18 55 -35 87 -35c38 0 61 27 86 73z" />
    <glyph glyph-name="notequal" unicode="&#x2260;" horiz-adv-x="631" 
d="M483 510l-41 -92h141v-49h-160l-62 -139h222v-49h-241l-48 -110l-39 17l42 93h-137v49h156l61 139h-217v49h236l48 109z" />
    <glyph glyph-name="lessequal" unicode="&#x2264;" horiz-adv-x="647" 
d="M598 112l-416 221v52l416 221v-60l-365 -185v-2l365 -187v-60zM601 20h-424v51h424v-51z" />
    <glyph glyph-name="greaterequal" unicode="&#x2265;" horiz-adv-x="646" 
d="M183 606l416 -221v-52l-416 -221v60l364 186v2l-364 186v60zM600 20h-422v51h422v-51z" />
    <glyph glyph-name="lozenge" unicode="&#x25ca;" horiz-adv-x="694" 
d="M643 368l-187 -409h-61l-184 409l187 411h61zM574 367l-128 285c-7 19 -14 43 -18 59h-2c-4 -17 -10 -38 -18 -59l-129 -282l129 -288c9 -21 14 -43 17 -56h4c3 13 10 41 16 55z" />
    <glyph glyph-name="uni00A0" unicode="&#xa0;" horiz-adv-x="250" 
 />
    <glyph glyph-name="uni00AD" unicode="&#xad;" horiz-adv-x="333" 
d="M346 275h-243l18 83h243z" />
    <glyph glyph-name="uni02C9" unicode="&#x2c9;" horiz-adv-x="333" 
d="M463 657h-313l12 58h313z" />
    <glyph glyph-name="uni03A9" unicode="&#x3a9;" horiz-adv-x="641" 
d="M189 67l1 4c-49 70 -81 185 -50 330c44 208 189 348 342 348c162 0 226 -160 187 -343c-32 -150 -118 -272 -192 -335l-1 -4h134l-14 -67h-218l10 49c78 55 165 176 200 340c29 136 2 290 -122 290c-116 0 -215 -126 -251 -292c-32 -153 3 -285 56 -338l-10 -49h-218
l14 67h132z" />
    <glyph glyph-name="uni2215" unicode="&#x2215;" horiz-adv-x="167" 
d="M-174 0l611 750h63l-611 -750h-63z" />
    <glyph glyph-name="o.superior" horiz-adv-x="300" 
d="M407 600c-8 -36 -18 -72 -37 -107c-31 -55 -74 -80 -127 -80c-63 0 -96 25 -103 80c-5 35 0 71 8 107c6 31 19 62 32 88c26 48 79 77 133 77s93 -29 99 -77c3 -26 1 -57 -5 -88zM198 585c-16 -78 -12 -132 48 -132c61 0 87 54 103 132c22 101 9 140 -45 140
c-53 0 -84 -39 -106 -140z" />
    <glyph glyph-name="one.superior" horiz-adv-x="300" 
d="M304 624h-104l9 43c70 1 111 13 133 83h50l-95 -450h-62z" />
    <glyph glyph-name="two.superior" horiz-adv-x="300" 
d="M301 484l-104 -74c-22 -19 -35 -30 -42 -58h201l-11 -52h-262c8 32 19 65 40 97c11 16 31 42 48 55l107 80c38 28 58 56 66 94c9 42 1 72 -49 72c-59 0 -74 -54 -83 -101h-62l6 28c7 33 22 64 50 90c18 14 49 35 104 35c83 0 115 -51 99 -125c-14 -66 -49 -99 -108 -141z
" />
    <glyph glyph-name="three.superior" horiz-adv-x="300" 
d="M222 504l12 56c42 2 88 -13 106 70c9 44 2 68 -46 68c-52 0 -69 -36 -79 -81h-58c14 75 62 133 151 133c72 0 112 -44 98 -112c-11 -48 -34 -84 -90 -100v-2c54 -11 70 -52 59 -103c-18 -84 -70 -142 -167 -142s-119 59 -99 141h59c-15 -48 -5 -90 55 -90
c46 0 76 30 86 76c15 72 -8 87 -87 86z" />
    <glyph glyph-name="uni2010" unicode="&#x2010;" horiz-adv-x="333" 
d="M346 275h-243l18 83h243z" />
    <glyph glyph-name="uni2113" unicode="&#x2113;" horiz-adv-x="448" 
d="M423 146l29 -33c-57 -81 -124 -123 -197 -123c-112 0 -134 89 -113 198l3 15c-19 -15 -42 -32 -62 -47l-13 45c32 25 62 48 89 73l61 287c40 187 126 249 199 249c76 0 99 -71 78 -168c-27 -130 -128 -257 -265 -380l-9 -42c-26 -121 7 -167 60 -167c56 0 108 49 140 93z
M295 561l-46 -217c96 95 176 198 198 299c14 66 5 106 -40 106c-35 0 -82 -47 -112 -188z" />
    </font>
</defs>
</svg>
