<?xml version="1.0" encoding="UTF-8" standalone="no"?><svg width="19px" height="19px" viewBox="0 0 19 19" version="1.1" xmlns="http://www.w3.org/2000/svg" xmlns:xlink="http://www.w3.org/1999/xlink">        <title>info button copy 10</title>    <desc>Created with Sketch.</desc>    <defs></defs>    <g id="Page-1" stroke="none" stroke-width="1" fill="none" fill-rule="evenodd">        <g id="AG-Calculator-v2---Mobile" transform="translate(-432.000000, -242.000000)">            <g id="Group-10-Copy" transform="translate(22.000000, 241.000000)">                <g id="Group-9" transform="translate(239.000000, 0.000000)">                    <g id="Group-6">                        <g id="info-button" transform="translate(171.000000, 1.000000)">                            <path d="M9.5,0 C4.2429375,0 0,4.2429375 0,9.5 C0,14.7422188 4.2429375,19 9.5,19 C14.7428125,19 19,14.7434062 19,9.5 C19,4.2429375 14.7428125,0 9.5,0 L9.5,0 Z" id="Imported-Layers" fill="#4A90E2"></path>                            <g id="Page-1" stroke-width="1" transform="translate(8.000000, 4.000000)" fill="#FFFFFF">                                <polygon id="Fill-1" points="0 11 3 11 3 4 0 4"></polygon>                                <path d="M3,1.50108727 C3,3.49818788 0,3.49818788 0,1.50108727 C0,-0.500362424 3,-0.500362424 3,1.50108727" id="Fill-2"></path>                            </g>                        </g>                    </g>                </g>            </g>        </g>    </g></svg>